<svg width="55" height="55" viewBox="0 0 55 55" fill="none" xmlns="http://www.w3.org/2000/svg">
<path d="M27.5 0C42.6638 0 55 12.3385 55 27.5C55 42.6661 42.6638 55 27.5 55C12.3339 55 0 42.6661 0 27.5C2.28317e-06 22.2421 1.49243 17.1227 4.31543 12.708C4.85831 11.8557 5.99234 11.6063 6.84473 12.1514C7.69942 12.6965 7.94935 13.8308 7.4043 14.6855C4.95785 18.5088 3.66602 22.9421 3.66602 27.5C3.66602 40.6424 14.3576 51.334 27.5 51.334C40.6424 51.334 51.3311 40.6424 51.3311 27.5C51.331 14.3599 40.6424 3.66895 27.5 3.66895C22.8983 3.66895 18.426 4.98516 14.582 7.4707C13.7273 8.0159 12.597 7.77592 12.0449 6.92578C11.4953 6.07577 11.7377 4.94147 12.5898 4.3916C17.0323 1.52009 22.189 2.30228e-06 27.5 0ZM27.5 7.33691C38.6164 7.33691 47.665 16.3836 47.665 27.5C47.665 30.7804 46.8616 34.0382 45.3369 36.9189C44.8656 37.8105 43.7589 38.1542 42.8604 37.6807C41.9641 37.2071 41.6219 36.0985 42.0977 35.2021C43.3405 32.8504 44.001 30.1867 44.001 27.5C44.001 18.405 36.5974 11.001 27.5 11.001C18.4026 11.001 10.999 18.405 10.999 27.5C10.999 36.5997 18.4026 44.001 27.5 44.001C30.1821 44.001 32.7397 43.3804 35.0938 42.1514C35.9946 41.6825 37.1007 42.0378 37.5674 42.9316C38.034 43.8279 37.6855 44.9389 36.7871 45.4033C33.9433 46.8841 30.7319 47.665 27.5 47.665C16.3813 47.665 7.33496 38.6187 7.33496 27.5C7.33497 16.3836 16.3813 7.33692 27.5 7.33691ZM37.4775 21.0303C37.805 20.9521 38.1314 21.0223 38.3955 21.2012C38.6595 21.38 38.8607 21.6678 38.9365 22.0254L40.4473 29.1543C40.5956 29.8544 40.1832 30.5613 39.5283 30.7178L36.9473 31.334C36.4485 31.4531 35.9505 31.2215 35.6748 30.793L33.7764 31.873C33.748 31.9738 33.7077 32.0722 33.6582 32.1689C33.4036 32.666 32.9504 32.9517 32.4678 32.9844C32.4711 33.2438 32.4145 33.5061 32.2871 33.7549C32.1035 34.1132 31.8133 34.3584 31.4854 34.4814C31.5663 34.8414 31.5313 35.2313 31.3477 35.5898C31.0924 36.088 30.6383 36.3738 30.1543 36.4053C30.1574 36.6642 30.1027 36.9267 29.9756 37.1748C29.5787 37.9492 28.6849 38.2107 27.9756 37.7998L27.4707 37.5078C27.0239 37.9357 26.3581 38.0487 25.7852 37.7168C25.5511 37.5812 25.3727 37.3887 25.2432 37.1689C24.8203 37.4223 24.289 37.4498 23.8193 37.1777C23.4825 36.9826 23.2545 36.6742 23.1387 36.3262C22.8008 36.4116 22.4327 36.3749 22.0957 36.1797C21.6263 35.9078 21.3603 35.4183 21.3311 34.9033C21.0882 34.9063 20.8405 34.8518 20.6074 34.7168C19.9884 34.3582 19.7225 33.6237 19.8906 32.9482L18.8203 31.9062L18.6465 31.8057C18.1981 32.2321 17.526 32.3419 16.9609 32.0146L14.7979 30.7617C14.0904 30.3518 13.8184 29.4076 14.21 28.6426L17.2656 22.6758C17.6575 21.9106 18.5531 21.6382 19.2607 22.0479L21.4238 23.3008C21.9899 23.6287 22.2685 24.2936 22.1738 24.9268L22.3955 25.0547C22.47 25.0979 22.7276 25.1829 23.0576 25.2539C23.3875 25.3249 23.7856 25.3887 24.1631 25.4414C24.8214 25.5333 25.2701 25.5743 25.4131 25.5879L25.916 25.1748C29.3227 22.4684 31.6763 23.6726 33.3828 23.3047L33.959 23.0977C33.8761 22.4416 34.2684 21.7971 34.8945 21.6475L37.4775 21.0303ZM28.4111 35.6729C28.3848 35.8438 28.3341 36.0125 28.252 36.1729L28.0156 36.6338L28.4453 36.8828C28.7035 37.0323 28.9855 36.924 29.1133 36.6748C29.241 36.4255 29.1605 36.1096 28.9141 35.9668C28.5343 35.7468 28.6117 35.7894 28.4111 35.6729ZM27.1963 34.9697C26.9501 34.835 26.6583 34.9161 26.5264 35.1738L26.0566 36.0908C25.9224 36.3529 26.0311 36.6737 26.2539 36.8027C26.4766 36.9314 26.7848 36.8528 26.9189 36.5908L27.3887 35.6738C27.5195 35.4184 27.4314 35.1192 27.1963 34.9697ZM25.6992 33.5078C25.4648 33.372 25.1704 33.4537 25.0361 33.7158L24.0938 35.5547C23.9595 35.8168 24.0644 36.1356 24.2871 36.2646C24.5098 36.3937 24.8217 36.3166 24.9561 36.0547L25.8984 34.2148C26.0325 33.9528 25.9336 33.6436 25.6992 33.5078ZM19.1904 30.9307L19.3955 31.0488L20.3389 31.9688L20.957 30.7627C21.3434 30.0083 22.2247 29.7148 22.9531 30.1367C23.4194 30.4069 23.689 30.8862 23.7207 31.3984C23.9647 31.3948 24.2115 31.4555 24.4453 31.5908C24.782 31.7859 25.014 32.0899 25.1299 32.4385C25.4679 32.3531 25.8325 32.395 26.1689 32.5898C26.6369 32.861 26.9062 33.3441 26.9365 33.8584C27.1769 33.8546 27.4202 33.9139 27.6572 34.0479C28.3461 34.4489 29.1029 34.8869 29.8203 35.2998C30.0666 35.4421 30.3567 35.3388 30.4844 35.0898C30.6066 34.8513 30.5345 34.5236 30.2881 34.3809C28.9939 33.6311 28.9942 33.6309 28.5625 33.3818C27.9675 33.0551 28.4515 32.11 29.0322 32.4639C29.61 32.7995 30.1824 33.128 30.7607 33.4629C31.0072 33.6055 31.2971 33.5042 31.4248 33.2549C31.5525 33.0056 31.475 32.6916 31.2285 32.5488C29.9348 31.7994 29.9342 31.7957 29.5029 31.5469C28.9078 31.2201 29.3917 30.2744 29.9727 30.6289C30.6932 31.0474 31.4089 31.4603 32.1309 31.8799C32.3772 32.0225 32.6682 31.9191 32.7959 31.6699C32.9236 31.4206 32.8461 31.1066 32.5996 30.9639C31.5451 30.3528 29.7734 29.3261 28.2734 28.46C28.0336 28.3211 27.9508 28.3404 27.8945 28.3545C27.8178 28.3737 27.683 28.4583 27.46 28.5811C26.8114 28.9379 25.7416 29.4893 25.7041 29.5088C25.0387 29.9184 24.1341 29.9218 23.5859 29.1729C23.0572 28.4509 23.1823 27.4174 23.8545 26.8652L24.2891 26.5088C24.1959 26.4967 24.13 26.491 24.0332 26.4775C23.642 26.4229 23.2286 26.3571 22.8623 26.2783C22.4962 26.1995 22.1553 26.1056 21.9258 25.9727L21.7754 25.8857L19.1904 30.9307ZM23.9756 32.5088C23.7412 32.3731 23.4468 32.4549 23.3125 32.7168L22.3701 34.5566C22.2361 34.8186 22.3409 35.1365 22.5635 35.2656C22.7862 35.3947 23.0952 35.3158 23.2295 35.0537L24.1709 33.2148C24.3051 32.9528 24.21 32.6446 23.9756 32.5088ZM22.4854 31.0508C22.251 30.915 21.9536 30.9998 21.8193 31.2617L20.8818 33.0938C20.7478 33.3557 20.8527 33.6736 21.0752 33.8027C21.2979 33.9317 21.6069 33.8537 21.7412 33.5918L22.6787 31.7598C22.8129 31.4977 22.7197 31.1866 22.4854 31.0508ZM33.6611 24.3096C33.641 24.3164 33.6206 24.3222 33.5996 24.3262C31.6601 24.756 29.6318 23.5309 26.5127 26.0039L24.4551 27.6924C24.2027 27.9 24.1718 28.2757 24.3594 28.5322C24.545 28.7782 24.8624 28.8195 25.2432 28.5879C25.2432 28.5879 26.3743 28.0019 27.0098 27.6523C27.1641 27.5675 27.3601 27.4131 27.6689 27.3359C27.9777 27.2589 28.3231 27.2981 28.7441 27.542C28.8723 27.6162 29.0018 27.6917 29.1279 27.7646C29.4267 27.8103 29.7421 27.7971 30.0078 27.7256C30.2963 27.6479 30.4751 27.5084 30.5371 27.3857C30.6618 27.1312 30.956 27.0314 31.1963 27.1621C31.4443 27.297 31.5388 27.6246 31.4023 27.8828C31.2216 28.2406 30.9246 28.4712 30.5986 28.6162C31.4109 29.0856 32.228 29.5561 33.0693 30.0459C33.3493 30.2081 33.5592 30.4535 33.6895 30.7373L35.3691 29.7803L34.1709 24.123L33.6611 24.3096Z" fill="white"/>
</svg>
