<svg width="55" height="55" viewBox="0 0 55 55" fill="none" xmlns="http://www.w3.org/2000/svg">
<path d="M27.5 0C42.6638 0 55 12.3385 55 27.5C55 42.6661 42.6638 55 27.5 55C12.3339 55 0 42.6661 0 27.5C9.58686e-08 22.2421 1.49243 17.1227 4.31543 12.708C4.85831 11.8557 5.99234 11.6063 6.84473 12.1514C7.69943 12.6965 7.94935 13.8308 7.4043 14.6855C4.95785 18.5088 3.66602 22.9421 3.66602 27.5C3.66602 40.6424 14.3576 51.334 27.5 51.334C40.6424 51.334 51.3311 40.6424 51.3311 27.5C51.3311 14.3599 40.6424 3.66895 27.5 3.66895C22.8983 3.66895 18.426 4.98516 14.582 7.4707C13.7273 8.0159 12.597 7.77592 12.0449 6.92578C11.4953 6.07577 11.7377 4.94147 12.5898 4.3916C17.0323 1.52009 22.189 9.66708e-08 27.5 0ZM27.5 7.33691C38.6164 7.33691 47.665 16.3836 47.665 27.5C47.665 30.7804 46.8616 34.0382 45.3369 36.9189C44.8656 37.8104 43.7589 38.1541 42.8604 37.6807C41.9641 37.2071 41.6219 36.0985 42.0977 35.2021C43.3405 32.8504 44.001 30.1867 44.001 27.5C44.001 18.4049 36.5974 11.001 27.5 11.001C18.4026 11.001 10.999 18.4049 10.999 27.5C10.999 36.5997 18.4026 44.001 27.5 44.001C30.1821 44.001 32.7397 43.3804 35.0938 42.1514C35.9946 41.6825 37.1007 42.0378 37.5674 42.9316C38.034 43.8279 37.6855 44.9389 36.7871 45.4033C33.9433 46.8841 30.7319 47.665 27.5 47.665C16.3813 47.665 7.33496 38.6187 7.33496 27.5C7.33496 16.3836 16.3813 7.33691 27.5 7.33691Z" fill="white"/>
<g clip-path="url(#clip0_1757_2221)">
<path d="M15.9277 34.2955L17.819 33.203V29.3143L15.9277 28.2217C15.4606 27.952 15.3008 27.3547 15.5705 26.8877C15.8403 26.4206 16.4375 26.2606 16.9046 26.5305L18.7977 27.624L22.159 25.6833V21.7993L20.2629 20.7045C19.7958 20.435 19.6358 19.8376 19.9055 19.3707C20.1752 18.9036 20.7724 18.7434 21.2395 19.0133L23.1356 20.1079L26.499 18.1662V15.9766C26.499 15.4372 26.9362 15 27.4756 15C28.015 15 28.4521 15.4372 28.4521 15.9766V18.1662L31.8155 20.1081L33.7118 19.0133C34.1787 18.7436 34.7761 18.9036 35.0456 19.3707C35.3153 19.8378 35.1553 20.435 34.6884 20.7047L32.7921 21.7995V25.6834L36.1534 27.624L38.0465 26.5305C38.5136 26.2608 39.1108 26.4206 39.3807 26.8877C39.6504 27.3547 39.4905 27.952 39.0234 28.2217L37.1321 29.3143V33.203L39.0234 34.2955C39.4905 34.5652 39.6504 35.1624 39.3807 35.6295C39.11 36.0981 38.512 36.2557 38.0465 35.9867L36.1534 34.8933L32.7921 36.834V39.0234C32.7921 39.5628 32.3549 40 31.8155 40C31.2761 40 30.839 39.5628 30.839 39.0234V36.8338L27.4756 34.8919L24.1121 36.834V39.0234C24.1121 39.5628 23.6748 40 23.1356 40C22.5962 40 22.159 39.5628 22.159 39.0234V36.8338L18.7975 34.8931L16.9045 35.9866C16.4383 36.2559 15.8407 36.0974 15.5705 35.6295C15.3008 35.1624 15.4606 34.5652 15.9277 34.2955ZM28.4521 33.2005L31.8155 35.1424L35.179 33.2005V29.3166L31.8155 27.3747L28.4521 29.3167V33.2005ZM30.839 25.6833V21.7995L27.4756 19.8576L24.1121 21.7995V25.6834L27.4756 27.6251L30.839 25.6833ZM19.7722 33.2005L23.1356 35.1424L26.499 33.2005V29.3166L23.1356 27.3747L19.7722 29.3166V33.2005Z" fill="white"/>
</g>
<defs>
<clipPath id="clip0_1757_2221">
<rect width="25" height="25" fill="white" transform="matrix(-1 0 0 1 40 15)"/>
</clipPath>
</defs>
</svg>
