<svg width="55" height="55" viewBox="0 0 55 55" fill="none" xmlns="http://www.w3.org/2000/svg">
<path d="M27.5 0C42.6638 0 55 12.3385 55 27.5C55 42.6661 42.6638 55 27.5 55C12.3339 55 0 42.6661 0 27.5C9.58686e-08 22.2421 1.49243 17.1227 4.31543 12.708C4.85831 11.8557 5.99234 11.6063 6.84473 12.1514C7.69943 12.6965 7.94935 13.8308 7.4043 14.6855C4.95785 18.5088 3.66602 22.9421 3.66602 27.5C3.66602 40.6424 14.3576 51.334 27.5 51.334C40.6424 51.334 51.3311 40.6424 51.3311 27.5C51.3311 14.3599 40.6424 3.66895 27.5 3.66895C22.8983 3.66895 18.426 4.98516 14.582 7.4707C13.7273 8.0159 12.597 7.77592 12.0449 6.92578C11.4953 6.07577 11.7377 4.94147 12.5898 4.3916C17.0323 1.52009 22.189 9.66708e-08 27.5 0ZM27.5 7.33691C38.6164 7.33691 47.665 16.3836 47.665 27.5C47.665 30.7804 46.8616 34.0382 45.3369 36.9189C44.8656 37.8104 43.7589 38.1541 42.8604 37.6807C41.9641 37.2071 41.6219 36.0985 42.0977 35.2021C43.3405 32.8504 44.001 30.1867 44.001 27.5C44.001 18.4049 36.5974 11.001 27.5 11.001C18.4026 11.001 10.999 18.4049 10.999 27.5C10.999 36.5997 18.4026 44.001 27.5 44.001C30.1821 44.001 32.7397 43.3804 35.0938 42.1514C35.9946 41.6825 37.1007 42.0378 37.5674 42.9316C38.034 43.8279 37.6855 44.9389 36.7871 45.4033C33.9433 46.8841 30.7319 47.665 27.5 47.665C16.3813 47.665 7.33496 38.6187 7.33496 27.5C7.33496 16.3836 16.3813 7.33691 27.5 7.33691ZM29.875 17C33.8036 17 36.9999 20.1718 37 24.0713C37 27.9709 33.8041 31.1426 29.875 31.1426H24.333V32.7139H32.25C33.1243 32.7139 33.833 33.4184 33.833 34.2861C33.8328 35.1537 33.1242 35.8574 32.25 35.8574H24.333V37.4287C24.3329 38.2964 23.6243 39 22.75 39C21.8757 39 21.1671 38.2964 21.167 37.4287V35.8574H19.583C18.709 35.8572 18.0002 35.1536 18 34.2861C18 33.4185 18.7089 32.714 19.583 32.7139H21.167V31.1426H19.583C18.7089 31.1424 18 30.4404 18 29.5713C18.0001 28.7023 18.7089 28.0002 19.583 28H21.167V18.5713C21.1671 17.7036 21.8757 17 22.75 17H29.875ZM24.333 20.1426V28H29.875C32.057 28 33.833 26.2369 33.833 24.0713C33.8329 21.9057 32.057 20.1426 29.875 20.1426H24.333Z" fill="white"/>
</svg>
