<svg width="55" height="55" viewBox="0 0 55 55" fill="none" xmlns="http://www.w3.org/2000/svg">
<path d="M27.5 0C42.6638 0 55 12.3385 55 27.5C55 42.6661 42.6638 55 27.5 55C12.3339 55 0 42.6661 0 27.5C2.28317e-06 22.2421 1.49243 17.1227 4.31543 12.708C4.85831 11.8557 5.99234 11.6063 6.84473 12.1514C7.69942 12.6965 7.94935 13.8308 7.4043 14.6855C4.95785 18.5088 3.66602 22.9421 3.66602 27.5C3.66602 40.6424 14.3576 51.334 27.5 51.334C40.6424 51.334 51.3311 40.6424 51.3311 27.5C51.331 14.3599 40.6424 3.66895 27.5 3.66895C22.8983 3.66895 18.426 4.98516 14.582 7.4707C13.7273 8.0159 12.597 7.77592 12.0449 6.92578C11.4953 6.07577 11.7377 4.94147 12.5898 4.3916C17.0323 1.52009 22.189 5.18274e-07 27.5 0ZM27.5 7.33691C38.6164 7.33691 47.665 16.3836 47.665 27.5C47.665 30.7804 46.8616 34.0382 45.3369 36.9189C44.8656 37.8105 43.7589 38.1541 42.8604 37.6807C41.9641 37.2071 41.6219 36.0985 42.0977 35.2021C43.3405 32.8504 44.001 30.1867 44.001 27.5C44.001 18.405 36.5974 11.001 27.5 11.001C18.4026 11.001 10.999 18.405 10.999 27.5C10.999 36.5997 18.4026 44.001 27.5 44.001C30.1821 44.001 32.7397 43.3804 35.0938 42.1514C35.9946 41.6825 37.1007 42.0378 37.5674 42.9316C38.034 43.8279 37.6855 44.9389 36.7871 45.4033C33.9433 46.8841 30.7319 47.665 27.5 47.665C16.3813 47.665 7.33496 38.6187 7.33496 27.5C7.33497 16.3836 16.3813 7.33692 27.5 7.33691ZM37.9707 30.3193C38.0065 30.3247 38.0417 30.335 38.0752 30.3486C38.1264 30.3699 38.1726 30.4009 38.2119 30.4395C38.2513 30.4782 38.2832 30.5239 38.3047 30.5742C38.3261 30.6245 38.3367 30.6783 38.3369 30.7324C38.3371 30.7865 38.3266 30.8399 38.3057 30.8896L38.2021 31.1338C38.5431 31.3662 38.8031 31.696 38.9463 32.0762L39.2227 32.0391C39.3332 32.0241 39.4459 32.0524 39.5361 32.1182C39.6265 32.184 39.687 32.2823 39.7041 32.3906C39.7211 32.4986 39.6938 32.6082 39.6279 32.6953C39.5618 32.7825 39.4621 32.8403 39.3516 32.8555L39.0674 32.8936C39.0578 33.0411 39.0308 33.187 38.9873 33.3281C38.9123 33.5574 38.8246 33.7823 38.7246 34.002L38.9434 34.1133C38.9938 34.1379 39.0391 34.1723 39.0762 34.2139C39.1133 34.2555 39.1412 34.3043 39.1592 34.3564C39.177 34.4085 39.1847 34.4631 39.1807 34.5176C39.1766 34.5721 39.1611 34.6253 39.1357 34.6738C39.1104 34.7223 39.076 34.7659 39.0332 34.8008C38.9904 34.8356 38.9402 34.8612 38.8867 34.877C38.8333 34.8927 38.7765 34.8983 38.7207 34.8926C38.6651 34.8868 38.6109 34.87 38.5615 34.8438L38.3438 34.7334C38.1422 35.0632 37.9106 35.375 37.6533 35.665L37.8301 35.833C37.8719 35.8708 37.906 35.9163 37.9297 35.9668C37.9533 36.0173 37.966 36.0718 37.9678 36.127C37.9695 36.1821 37.9607 36.237 37.9404 36.2881C37.92 36.3393 37.889 36.3866 37.8496 36.4258C37.8103 36.4649 37.763 36.4958 37.7109 36.5166C37.6588 36.5374 37.6025 36.5476 37.5459 36.5469C37.4893 36.5461 37.433 36.5339 37.3809 36.5117C37.3288 36.4895 37.2816 36.4571 37.2422 36.417L37.0674 36.25C36.7752 36.508 36.46 36.7408 36.126 36.9453L36.2412 37.1494C36.2682 37.1971 36.2857 37.2498 36.292 37.3037C36.2982 37.3575 36.2936 37.4121 36.2783 37.4639C36.2629 37.5157 36.2369 37.5647 36.2021 37.6064C36.1675 37.6481 36.1247 37.6827 36.0762 37.708C35.9777 37.7593 35.8609 37.7701 35.7529 37.7383C35.6452 37.7064 35.5538 37.6344 35.499 37.5381L35.3838 37.333C35.0248 37.4961 34.651 37.6281 34.2676 37.7275L34.3145 37.9473C34.3352 38.0542 34.3128 38.1645 34.251 38.2539C34.1892 38.3432 34.0932 38.4043 33.9844 38.4248C33.8754 38.4452 33.7614 38.4235 33.668 38.3633C33.5745 38.303 33.5087 38.2089 33.4844 38.1025L33.4375 37.8848C33.1694 37.9213 32.899 37.9418 32.6279 37.9473C32.4946 37.9492 32.361 37.9381 32.2295 37.9141L32.1279 38.1523C32.0852 38.2534 32.0023 38.3332 31.8984 38.374C31.7948 38.4147 31.6782 38.4132 31.5742 38.3701C31.4702 38.3269 31.3872 38.2454 31.3438 38.1436C31.3004 38.0416 31.3 37.9272 31.3428 37.8262L31.4443 37.5869C31.1036 37.3532 30.8439 37.0226 30.7012 36.6416L30.4229 36.6797C30.312 36.6947 30.199 36.6655 30.1084 36.5996C30.0177 36.5336 29.9569 36.4357 29.9395 36.3271C29.931 36.2735 29.933 36.2185 29.9463 36.166C29.9596 36.1137 29.9837 36.0646 30.0166 36.0215C30.0495 35.9784 30.0911 35.9423 30.1387 35.915C30.1862 35.8878 30.2391 35.8695 30.2939 35.8623L30.584 35.8232C30.6127 35.4316 30.7635 35.0596 31.0156 34.7568L30.8154 34.5215C30.7772 34.4797 30.7481 34.4308 30.7295 34.3779C30.7109 34.3251 30.7031 34.2693 30.707 34.2139C30.711 34.1586 30.7262 34.1047 30.752 34.0557C30.7779 34.0065 30.8147 33.9627 30.8584 33.9277C30.902 33.8929 30.9524 33.8668 31.0068 33.8516C31.0614 33.8363 31.1191 33.832 31.1758 33.8389C31.2323 33.8458 31.2874 33.8637 31.3369 33.8916C31.3865 33.9196 31.4301 33.9575 31.4648 34.002L31.6709 34.2432C31.9317 34.1158 32.2195 34.0473 32.5127 34.042C32.6137 34.0381 32.7146 34.029 32.8145 34.0146L32.749 33.792C32.7338 33.7395 32.729 33.6847 32.7354 33.6309C32.7418 33.577 32.759 33.5246 32.7861 33.4775C32.8132 33.4305 32.85 33.3895 32.8936 33.3564C32.937 33.3235 32.9867 33.2993 33.04 33.2852C33.0935 33.2711 33.1498 33.2674 33.2051 33.2744C33.2604 33.2815 33.3146 33.299 33.3633 33.3262C33.4117 33.3533 33.4548 33.3897 33.4893 33.4326C33.5237 33.4756 33.5493 33.5248 33.5645 33.5771L33.6279 33.7939C33.6573 33.7811 33.6879 33.7701 33.7168 33.7568C33.8058 33.7131 33.8928 33.6649 33.9766 33.6123C34.086 33.5453 34.1902 33.4707 34.2891 33.3896C34.3642 33.3307 34.4365 33.2684 34.5049 33.2021C34.5245 33.1824 34.5406 33.1591 34.5596 33.1387L34.3652 33.0137C34.3178 32.9839 34.2764 32.9446 34.2441 32.8994C34.212 32.8543 34.1898 32.8034 34.1777 32.75C34.1657 32.6964 34.1647 32.6406 34.1748 32.5869C34.1849 32.5334 34.2059 32.4828 34.2363 32.4375C34.2669 32.3921 34.3062 32.3524 34.3525 32.3223C34.3988 32.2923 34.451 32.2718 34.5059 32.2617C34.5608 32.2516 34.6179 32.2522 34.6729 32.2637C34.7277 32.2752 34.7798 32.2979 34.8262 32.3291L35.0244 32.457C35.0794 32.3461 35.1269 32.2316 35.166 32.1143C35.2465 31.8667 35.3778 31.6379 35.5518 31.4424L35.3662 31.1953C35.3027 31.1059 35.277 30.996 35.2949 30.8896C35.313 30.7833 35.3736 30.6886 35.4629 30.626C35.5523 30.5634 35.6638 30.5377 35.7734 30.5547C35.8831 30.5717 35.9826 30.6299 36.0498 30.7168L36.2236 30.9492C36.5721 30.7903 36.9622 30.7351 37.3457 30.79C37.3697 30.7936 37.3939 30.8022 37.418 30.8066L37.5205 30.5645C37.5564 30.4805 37.6199 30.4105 37.7012 30.3662C37.7826 30.3219 37.8778 30.3054 37.9707 30.3193ZM31.002 16.1758C31.2195 16.0445 31.4792 16.0074 31.7236 16.0723C31.968 16.1371 32.1776 16.2986 32.3057 16.5215C32.4338 16.7445 32.4695 17.0111 32.4062 17.2617L32.2549 17.8564C33.0836 18.2838 33.7628 18.964 34.1982 19.8037L34.8037 19.6201C35.0451 19.5465 35.3056 19.5738 35.5273 19.6963C35.7491 19.8189 35.9147 20.027 35.9873 20.2744C36.0228 20.3968 36.0345 20.5253 36.0215 20.6523C36.0085 20.7794 35.9707 20.9025 35.9111 21.0146C35.8517 21.1266 35.7716 21.2256 35.6748 21.3057C35.5779 21.3857 35.4661 21.4456 35.3467 21.4814L34.7139 21.6738C34.7725 22.5983 34.5542 23.5193 34.0889 24.3135L34.6074 24.793C34.7051 24.8772 34.785 24.981 34.8428 25.0977C34.9006 25.2145 34.9349 25.3429 34.9434 25.4736C34.9518 25.6043 34.9347 25.7357 34.8926 25.8594C34.8504 25.983 34.7842 26.0966 34.6982 26.1934C34.6122 26.2902 34.5078 26.3683 34.3916 26.4229C34.2754 26.4774 34.1493 26.5072 34.0215 26.5107C33.894 26.5142 33.7671 26.4913 33.6484 26.4434C33.5295 26.3953 33.4211 26.3225 33.3301 26.2305L32.7959 25.7383C32.2572 26.1258 31.6408 26.386 30.9922 26.5C30.7694 26.544 30.549 26.5999 30.332 26.668L30.5469 27.165C30.5971 27.2823 30.6234 27.4091 30.626 27.5371C30.6286 27.6651 30.6069 27.7928 30.5615 27.9121C30.5162 28.0312 30.4486 28.1401 30.3623 28.2324C30.2759 28.3248 30.172 28.3987 30.0576 28.4502C29.9433 28.5016 29.8201 28.5295 29.6953 28.5322C29.5704 28.5349 29.4455 28.5124 29.3291 28.4658C29.2129 28.4193 29.1066 28.3493 29.0166 28.2607C28.9266 28.1721 28.8539 28.0664 28.8037 27.9492L28.5947 27.4648C28.5335 27.505 28.4692 27.541 28.4092 27.582C28.2254 27.7149 28.0483 27.858 27.8789 28.0098C27.6569 28.2041 27.4479 28.4141 27.2539 28.6377C27.1058 28.8011 26.9659 28.9722 26.835 29.1504C26.7977 29.2034 26.77 29.2632 26.7344 29.3174L27.2041 29.543C27.3185 29.5961 27.4213 29.6723 27.5068 29.7666C27.5924 29.861 27.6588 29.9718 27.7021 30.0928C27.7455 30.2137 27.7653 30.342 27.7598 30.4707C27.7542 30.5995 27.7236 30.7262 27.6699 30.8428C27.6163 30.9594 27.5407 31.0641 27.4473 31.1504C27.3539 31.2366 27.2446 31.3031 27.126 31.3457C27.0073 31.3883 26.8814 31.4062 26.7559 31.3984C26.6304 31.3907 26.5074 31.3576 26.3945 31.3008L25.9141 31.0684C25.8266 31.3469 25.7573 31.6319 25.707 31.9199C25.6058 32.5254 25.3862 33.1038 25.0615 33.6201L25.5498 34.1338C25.7188 34.3205 25.8095 34.5676 25.8027 34.8223C25.7959 35.077 25.6924 35.3191 25.5137 35.4961C25.3349 35.6731 25.0952 35.7713 24.8467 35.7695C24.5983 35.7677 24.3608 35.6657 24.1846 35.4863L23.7256 35.0039C23.0021 35.4956 22.1541 35.76 21.2861 35.7646C21.2318 35.7646 21.1758 35.7531 21.1211 35.751L20.9678 36.3516C20.9143 36.5602 20.7947 36.7444 20.6279 36.876C20.4611 37.0075 20.2564 37.0786 20.0459 37.0781C19.965 37.078 19.8841 37.0681 19.8057 37.0479C19.6851 37.016 19.5721 36.9595 19.4727 36.8828C19.3732 36.8061 19.2888 36.7105 19.2256 36.6006C19.1623 36.4906 19.1209 36.3686 19.1035 36.2422C19.0862 36.1158 19.0938 35.9869 19.125 35.8633L19.2793 35.2578C18.4505 34.8334 17.7702 34.1552 17.334 33.3174L16.7334 33.499C16.4926 33.5726 16.2327 33.5453 16.0117 33.4229C15.791 33.3004 15.6265 33.0932 15.5547 32.8467C15.4829 32.5999 15.5094 32.333 15.6289 32.1064C15.7484 31.8801 15.9508 31.7113 16.1914 31.6377L16.8105 31.4512C16.7857 31.1035 16.8001 30.7536 16.8525 30.4092C16.9475 29.8478 17.0713 29.2918 17.2246 28.7441L16.7041 28.5596C16.5844 28.5196 16.4732 28.4564 16.3779 28.3721C16.2826 28.2877 16.2045 28.184 16.1484 28.0684C16.0925 27.9529 16.0598 27.8269 16.0518 27.6982C16.0437 27.5695 16.0604 27.4403 16.1016 27.3184C16.1427 27.1965 16.2071 27.0843 16.291 26.9883C16.375 26.8922 16.4772 26.8141 16.5908 26.7588C16.7046 26.7035 16.8283 26.6719 16.9541 26.666C17.0799 26.6601 17.206 26.6801 17.3242 26.7246L17.8418 26.9062C18.1859 26.0667 18.6008 25.2593 19.0811 24.4932L18.6367 24.1621C18.5322 24.0884 18.4433 23.9934 18.375 23.8838C18.3067 23.774 18.2604 23.6508 18.2393 23.5225C18.2181 23.3941 18.2217 23.2624 18.251 23.1357C18.2803 23.0092 18.3342 22.89 18.4092 22.7852C18.4842 22.6803 18.5795 22.5921 18.6885 22.5254C18.7976 22.4587 18.9191 22.4143 19.0449 22.3965C19.1705 22.3787 19.2984 22.3872 19.4209 22.4209C19.5436 22.4547 19.6587 22.5136 19.7588 22.5938L20.1992 22.9229C20.767 22.2193 21.3931 21.5667 22.0703 20.9736L21.75 20.5371C21.6753 20.435 21.6216 20.3181 21.5908 20.1943C21.5602 20.0708 21.5534 19.9425 21.5713 19.8164C21.5893 19.6901 21.6314 19.5685 21.6953 19.459C21.7592 19.3495 21.8434 19.2537 21.9434 19.1777C22.1459 19.0239 22.3999 18.9582 22.6494 18.9951C22.8988 19.0321 23.1236 19.1688 23.2754 19.375L23.5967 19.8115C24.342 19.3065 25.1288 18.8688 25.9482 18.5039L25.7754 18.0088C25.6959 17.7663 25.7131 17.5015 25.8223 17.2715C25.9315 17.0413 26.125 16.8638 26.3604 16.7783C26.5956 16.6931 26.854 16.7062 27.0801 16.8145C27.3062 16.9228 27.4822 17.1177 27.5693 17.3574L27.7412 17.8506C28.3246 17.6724 28.9178 17.5295 29.5176 17.4229C29.813 17.3722 30.1128 17.3518 30.4121 17.3623L30.5635 16.7725C30.6268 16.5219 30.7844 16.3071 31.002 16.1758ZM35.0479 34.8135C34.9352 34.7968 34.821 34.8249 34.7305 34.8906C34.64 34.9563 34.58 35.0545 34.5645 35.1641C34.5529 35.2459 34.5664 35.3303 34.6035 35.4053C34.6406 35.4802 34.7003 35.5431 34.7734 35.5859C34.8464 35.6285 34.9303 35.6491 35.0146 35.6455C35.0992 35.6418 35.1806 35.6134 35.248 35.5645C35.3155 35.5154 35.3668 35.4479 35.3945 35.3701C35.4222 35.2923 35.4258 35.2073 35.4043 35.127C35.3828 35.0467 35.3368 34.9737 35.2734 34.918C35.2101 34.8624 35.1316 34.826 35.0479 34.8135ZM36.793 32.6797C36.5677 32.6463 36.3393 32.7015 36.1582 32.833C35.9773 32.9646 35.858 33.1615 35.8271 33.3809C35.8042 33.5443 35.8313 33.7116 35.9053 33.8613C35.9795 34.0112 36.0978 34.137 36.2441 34.2227C36.3905 34.3083 36.5593 34.3503 36.7285 34.3428C36.8975 34.3352 37.0594 34.2786 37.1943 34.1807C37.3294 34.0826 37.4319 33.9476 37.4873 33.792C37.5426 33.6364 37.5488 33.4673 37.5059 33.3066C37.4628 33.1459 37.372 33.0003 37.2451 32.8887C37.1183 32.7771 36.9609 32.7046 36.793 32.6797ZM22.6582 27.3701C22.3067 27.2209 21.92 27.1817 21.5469 27.2578C21.1738 27.3339 20.8305 27.5211 20.5615 27.7969C20.2926 28.0726 20.1094 28.4242 20.0352 28.8066C19.9609 29.1891 19.9999 29.586 20.1455 29.9463C20.2911 30.3064 20.5373 30.6145 20.8535 30.8311C21.1697 31.0476 21.5416 31.163 21.9219 31.1631C22.432 31.1631 22.9215 30.9557 23.2822 30.5859C23.6429 30.2162 23.8457 29.7144 23.8457 29.1914C23.8457 28.8014 23.7328 28.42 23.5215 28.0957C23.3102 27.7716 23.0096 27.5193 22.6582 27.3701ZM24.9404 23.624C24.7539 23.6621 24.5827 23.7558 24.4482 23.8936C24.3137 24.0314 24.2217 24.2072 24.1846 24.3984C24.1475 24.5896 24.1665 24.7877 24.2393 24.9678C24.312 25.1479 24.4356 25.3018 24.5938 25.4102C24.7519 25.5185 24.9377 25.5762 25.1279 25.5762C25.3828 25.5762 25.6273 25.4728 25.8076 25.2881C25.9879 25.1032 26.0898 24.8522 26.0898 24.5908C26.0898 24.3959 26.0333 24.2051 25.9277 24.043C25.8221 23.8809 25.6718 23.7543 25.4961 23.6797C25.3204 23.6051 25.127 23.586 24.9404 23.624Z" fill="white"/>
</svg>
