<svg width="38" height="51" viewBox="0 0 38 51" fill="none" xmlns="http://www.w3.org/2000/svg">
<path fill-rule="evenodd" clip-rule="evenodd" d="M14.9426 48.7111L14.1291 47.9652C14.1291 47.9652 -10.6154 16.3626 5.38794 4.9559C5.38794 4.9559 18.4775 -4.89106 33.0905 5.22717C33.0905 5.22717 49.0938 17.2578 23.314 47.9652C23.314 47.9652 19.6903 52.2512 14.9426 48.7111ZM10.6444 13.4519C10.2559 13.8407 10.0377 14.3677 10.0377 14.9172C10.0377 15.4666 10.2559 15.9936 10.6444 16.3824L17.5591 23.2939C17.948 23.6822 18.4752 23.9003 19.025 23.9003C19.5747 23.9003 20.1019 23.6822 20.4909 23.2939L27.4055 16.3824C27.7719 15.9894 27.9714 15.4695 27.9619 14.9323C27.9525 14.3952 27.7348 13.8826 27.3547 13.5028C26.9746 13.1229 26.4619 12.9053 25.9245 12.8958C25.3871 12.8863 24.8669 13.0857 24.4737 13.4519L19.025 18.8954L13.5762 13.4492C13.1873 13.0609 12.66 12.8428 12.1103 12.8428C11.5606 12.8428 11.0334 13.0609 10.6444 13.4492V13.4519ZM10.6444 21.7457C10.2559 22.1345 10.0377 22.6615 10.0377 23.2109C10.0377 23.7604 10.2559 24.2874 10.6444 24.6762L17.5591 31.5877C17.948 31.9759 18.4752 32.194 19.025 32.194C19.5747 32.194 20.1019 31.9759 20.4909 31.5877L27.4055 24.6762C27.7719 24.2831 27.9714 23.7633 27.9619 23.2261C27.9525 22.6889 27.7348 22.1764 27.3547 21.7965C26.9746 21.4166 26.4619 21.199 25.9245 21.1896C25.3871 21.1801 24.8669 21.3795 24.4737 21.7457L19.025 27.1892L13.5762 21.743C13.1873 21.3547 12.66 21.1366 12.1103 21.1366C11.5606 21.1366 11.0334 21.3547 10.6444 21.743V21.7457Z" fill="#F9F3EA"/>
</svg>
