<svg width="29" height="29" viewBox="0 0 29 29" fill="none" xmlns="http://www.w3.org/2000/svg">
<path d="M14.6993 0C6.87103 0 0.524262 6.29713 0.524262 14.0657C0.524262 16.7231 1.26754 19.2085 2.55834 21.3288L0 28.875L7.84807 26.3818C9.87886 27.4959 12.2144 28.1315 14.6993 28.1315C22.5286 28.1315 28.875 21.8334 28.875 14.0657C28.875 6.29713 22.5286 0 14.6993 0ZM21.748 19.4075C21.4146 20.2342 19.9063 20.9887 19.2409 21.0234C18.5761 21.0587 18.5571 21.5387 14.9328 19.9642C11.3089 18.3894 9.12869 14.5602 8.95679 14.3136C8.78477 14.0679 7.553 12.3125 7.61945 10.546C7.68636 8.77916 8.65374 7.94559 8.99901 7.59889C9.3439 7.25169 9.73932 7.18949 9.98076 7.18556C10.2662 7.18092 10.451 7.17705 10.6622 7.18485C10.8732 7.19284 11.1902 7.1407 11.4647 7.87056C11.739 8.60037 12.3956 10.3941 12.4795 10.5769C12.5635 10.7599 12.6154 10.9717 12.4861 11.2067C12.3564 11.4421 12.2901 11.5892 12.1019 11.7921C11.9127 11.995 11.704 12.246 11.5352 12.4011C11.347 12.5729 11.1505 12.7602 11.3483 13.1274C11.5461 13.4944 12.2283 14.6972 13.2677 15.6885C14.6035 16.9628 15.7554 17.3855 16.1099 17.5781C16.4654 17.7717 16.6775 17.7502 16.8979 17.5182C17.1173 17.2863 17.8415 16.5034 18.0965 16.1538C18.3514 15.8033 18.5903 15.872 18.9178 16.0037C19.2451 16.136 20.9904 17.0708 21.3459 17.2638C21.701 17.4565 21.9384 17.5557 22.0233 17.7086C22.1082 17.862 22.0814 18.5807 21.748 19.4075Z" fill="#DACDC2"/>
</svg>
