<svg width="24" height="24" viewBox="0 0 24 24" fill="none" xmlns="http://www.w3.org/2000/svg">
<path d="M16.4632 8.846L15.3732 15.825C15.3581 15.9212 15.3195 16.0122 15.2606 16.0898C15.2017 16.1673 15.1245 16.2291 15.0359 16.2694C14.9472 16.3098 14.85 16.3275 14.7528 16.3209C14.6556 16.3144 14.5616 16.2838 14.4792 16.232L10.8292 13.945C10.7533 13.8975 10.6893 13.8334 10.642 13.7574C10.5946 13.6815 10.5653 13.5957 10.5561 13.5067C10.547 13.4177 10.5582 13.3278 10.5891 13.2438C10.6199 13.1598 10.6696 13.0839 10.7342 13.022L13.7642 10.118C13.7982 10.086 13.7582 10.033 13.7182 10.057L9.32617 12.685C9.06512 12.842 8.75512 12.8965 8.45617 12.838L6.86617 12.531C6.29217 12.42 6.21317 11.632 6.75217 11.409L15.2542 7.894C15.399 7.83374 15.5573 7.81319 15.7127 7.83449C15.8681 7.85579 16.0151 7.91815 16.1384 8.01515C16.2616 8.11215 16.3568 8.24028 16.4141 8.38632C16.4714 8.53237 16.4887 8.69105 16.4642 8.846" fill="black"/>
<path fill-rule="evenodd" clip-rule="evenodd" d="M11.9991 1.70599C6.31408 1.70599 1.70508 6.31499 1.70508 12C1.70508 17.685 6.31408 22.294 11.9991 22.294C17.6841 22.294 22.2931 17.685 22.2931 12C22.2931 6.31499 17.6841 1.70599 11.9991 1.70599ZM3.46908 12C3.46908 10.8798 3.68971 9.77061 4.11839 8.7357C4.54706 7.7008 5.17537 6.76046 5.96746 5.96837C6.75954 5.17629 7.69988 4.54797 8.73479 4.1193C9.7697 3.69063 10.8789 3.46999 11.9991 3.46999C13.1193 3.46999 14.2285 3.69063 15.2634 4.1193C16.2983 4.54797 17.2386 5.17629 18.0307 5.96837C18.8228 6.76046 19.4511 7.7008 19.8798 8.7357C20.3084 9.77061 20.5291 10.8798 20.5291 12C20.5291 14.2623 19.6304 16.4319 18.0307 18.0316C16.431 19.6313 14.2614 20.53 11.9991 20.53C9.73678 20.53 7.56714 19.6313 5.96746 18.0316C4.36777 16.4319 3.46908 14.2623 3.46908 12Z" fill="black"/>
</svg>
