<svg width="24" height="24" viewBox="0 0 24 24" fill="none" xmlns="http://www.w3.org/2000/svg">
<path d="M19.0508 4.90999C18.1338 3.9841 17.0418 3.24996 15.8383 2.75036C14.6348 2.25075 13.3439 1.99568 12.0408 1.99999C6.58078 1.99999 2.13078 6.44999 2.13078 11.91C2.13078 13.66 2.59078 15.36 3.45078 16.86L2.05078 22L7.30078 20.62C8.75078 21.41 10.3808 21.83 12.0408 21.83C17.5008 21.83 21.9508 17.38 21.9508 11.92C21.9508 9.26999 20.9208 6.77999 19.0508 4.90999ZM12.0408 20.15C10.5608 20.15 9.11078 19.75 7.84078 19L7.54078 18.82L4.42078 19.64L5.25078 16.6L5.05078 16.29C4.22833 14.9771 3.79171 13.4593 3.79078 11.91C3.79078 7.36999 7.49078 3.66999 12.0308 3.66999C14.2308 3.66999 16.3008 4.52999 17.8508 6.08999C18.6184 6.85386 19.2267 7.76254 19.6404 8.76332C20.0541 9.76411 20.265 10.8371 20.2608 11.92C20.2808 16.46 16.5808 20.15 12.0408 20.15ZM16.5608 13.99C16.3108 13.87 15.0908 13.27 14.8708 13.18C14.6408 13.1 14.4808 13.06 14.3108 13.3C14.1408 13.55 13.6708 14.11 13.5308 14.27C13.3908 14.44 13.2408 14.46 12.9908 14.33C12.7408 14.21 11.9408 13.94 11.0008 13.1C10.2608 12.44 9.77078 11.63 9.62078 11.38C9.48078 11.13 9.60078 11 9.73078 10.87C9.84078 10.76 9.98078 10.58 10.1008 10.44C10.2208 10.3 10.2708 10.19 10.3508 10.03C10.4308 9.85999 10.3908 9.71999 10.3308 9.59999C10.2708 9.47999 9.77078 8.25999 9.57078 7.75999C9.37078 7.27999 9.16078 7.33999 9.01078 7.32999H8.53078C8.36078 7.32999 8.10078 7.38999 7.87078 7.63999C7.65078 7.88999 7.01078 8.48999 7.01078 9.70999C7.01078 10.93 7.90078 12.11 8.02078 12.27C8.14078 12.44 9.77078 14.94 12.2508 16.01C12.8408 16.27 13.3008 16.42 13.6608 16.53C14.2508 16.72 14.7908 16.69 15.2208 16.63C15.7008 16.56 16.6908 16.03 16.8908 15.45C17.1008 14.87 17.1008 14.38 17.0308 14.27C16.9608 14.16 16.8108 14.11 16.5608 13.99Z" fill="black"/>
</svg>
