<svg width="100" height="33" viewBox="0 0 100 33" fill="none" xmlns="http://www.w3.org/2000/svg">
<path fill-rule="evenodd" clip-rule="evenodd" d="M64.3159 32.8922C64.2019 32.0187 63.9171 31.2051 63.5297 30.4632L58.3913 29.9727L62.9828 29.53C62.6752 29.0633 62.322 28.6206 61.9574 28.2018L59.2458 27.7711L61.2055 27.46C60.9662 27.2207 60.7269 26.9933 60.4649 26.7899C59.4395 25.9524 58.3571 25.1986 57.3545 24.349C55.9417 23.1645 54.7454 21.7645 53.9137 20.0655C52.7174 17.6126 52.8199 15.2196 54.2213 12.8864C54.8479 11.8574 55.4518 11.2352 56.3291 10.4694C56.3405 10.4574 56.4772 10.3617 56.5114 10.3378L56.5228 10.3258C56.5342 10.3258 56.5342 10.3139 56.5456 10.3139L56.6253 10.266C56.6367 10.254 56.6595 10.2421 56.6709 10.2421L56.7279 10.2062L57.252 9.87115L56.8418 10.4814L56.762 10.601C56.3405 11.1395 56.1468 11.5104 55.7936 12.0967H54.8024C54.6201 12.336 54.4606 12.5753 54.3124 12.8266C54.1415 13.1018 53.982 13.3889 53.8453 13.688C53.7086 13.9872 53.5719 14.2983 53.4693 14.6213C53.3668 14.9444 53.2756 15.2794 53.2187 15.6144C53.1617 15.9614 53.1275 16.3084 53.1275 16.6554C53.1161 17.3614 53.2415 18.0553 53.4352 18.7134C53.6288 19.3595 53.8225 19.8262 54.1415 20.4005H55.8278C56.3291 21.1543 56.9215 21.8363 57.571 22.4585C58.6761 23.5234 59.8838 24.4567 60.989 25.5216C61.0574 25.5934 61.1257 25.6532 61.1941 25.725C61.4219 25.9524 61.6384 26.1797 61.8435 26.407C61.946 26.5267 62.0372 26.6463 62.1169 26.754C62.3106 27.0053 62.5043 27.2566 62.6866 27.5198C62.7322 27.5796 62.7664 27.6395 62.8119 27.7112C62.8119 27.7112 62.8119 27.7232 62.8233 27.7232C63.131 28.1899 63.4044 28.6685 63.6437 29.183C63.9057 29.7693 64.1222 30.3795 64.2475 31.0017C64.3728 31.6358 64.407 32.2819 64.3273 32.9041L64.3159 32.8922Z" fill="#942D28"/>
<path fill-rule="evenodd" clip-rule="evenodd" d="M56.5227 10.3247C56.5569 10.3011 56.6139 10.2657 56.6822 10.2302L56.5227 10.3247Z" fill="#74685F"/>
<path fill-rule="evenodd" clip-rule="evenodd" d="M62.8005 27.6993C62.7549 27.6395 62.7207 27.5796 62.6751 27.5079C62.4928 27.2446 62.3106 26.9933 62.1055 26.7421C62.0143 26.6344 61.9232 26.5147 61.832 26.3951C62.208 26.8139 62.527 27.2446 62.8005 27.6873V27.6993Z" fill="#74685F"/>
<path fill-rule="evenodd" clip-rule="evenodd" d="M60.1801 7.39449C61.8891 5.10914 63.8146 2.97933 64.4868 0C64.6463 0.382886 64.6577 0.96918 64.5437 1.6153C64.3159 2.89558 63.7462 3.99637 62.9714 4.98948C62.265 5.88687 61.4561 6.64068 60.4991 7.22697C60.3965 7.2868 60.2826 7.34662 60.1801 7.39449Z" fill="#942D28"/>
<path fill-rule="evenodd" clip-rule="evenodd" d="M57.7305 25.9884C56.9557 27.1012 56.1696 28.19 55.4176 29.3028C54.6657 30.4275 54.1074 31.6599 53.7656 33C53.5719 32.3778 53.6289 31.7437 53.777 31.1454C54.3467 28.8481 55.5771 27.3046 57.4798 26.0961C57.4912 26.0841 57.6735 26.0004 57.7191 26.0004L57.7305 25.9884Z" fill="#942D28"/>
<path fill-rule="evenodd" clip-rule="evenodd" d="M8.73875 18.6657C9.39957 18.2589 9.90088 17.7325 10.2655 17.0744C10.6301 16.4163 10.801 15.6864 10.801 14.8847C10.801 14.0711 10.6187 13.3412 10.2655 12.6951C9.90088 12.037 9.39957 11.5106 8.73875 11.1037C8.07793 10.6969 7.31457 10.4576 6.44867 10.3858V19.3836C7.31457 19.3119 8.07793 19.0726 8.73875 18.6657ZM1.60647 17.0744C1.97106 17.7325 2.47237 18.2589 3.13319 18.6657C3.79401 19.0726 4.55737 19.3119 5.42327 19.3836V10.3858C4.55737 10.4576 3.79401 10.6969 3.13319 11.1037C2.47237 11.5106 1.97106 12.037 1.60647 12.6951C1.24188 13.3532 1.07098 14.0831 1.07098 14.8847C1.07098 15.6984 1.25328 16.4282 1.60647 17.0744ZM9.03498 10.0508C9.93506 10.5294 10.6415 11.1875 11.1428 12.037C11.6441 12.8866 11.8947 13.8318 11.8947 14.8728C11.8947 15.9257 11.6441 16.871 11.1428 17.7085C10.6415 18.5581 9.94645 19.2161 9.03498 19.6947C8.1349 20.1734 7.0981 20.4127 5.94736 20.4127C4.79663 20.4127 3.75983 20.1734 2.85975 19.6947C1.95967 19.2161 1.25328 18.5581 0.751966 17.7085C0.250655 16.859 0 15.9137 0 14.8728C0 13.8198 0.250655 12.8746 0.751966 12.037C1.25328 11.1875 1.95967 10.5294 2.85975 10.0508C3.75983 9.5722 4.79663 9.33289 5.94736 9.33289C7.0981 9.33289 8.1349 9.5722 9.03498 10.0508Z" fill="#2E352E"/>
<path fill-rule="evenodd" clip-rule="evenodd" d="M15.7913 13.4249C15.3584 13.6881 15.0279 14.059 14.7887 14.5257C14.5494 15.0043 14.4241 15.5427 14.4241 16.153C14.4241 16.3085 14.4241 16.4162 14.4355 16.4999L19.9385 15.3752C19.8246 14.6932 19.5169 14.1308 19.0384 13.6881C18.5485 13.2454 17.9561 13.03 17.2611 13.03C16.7142 13.03 16.2356 13.1617 15.8027 13.4249H15.7913ZM18.8561 19.1562C19.2663 18.9767 19.6195 18.7135 19.9043 18.3545L20.4968 19.0725C20.155 19.5032 19.722 19.8382 19.2093 20.0656C18.6966 20.2929 18.127 20.4126 17.5003 20.4126C16.7028 20.4126 15.985 20.2331 15.3697 19.8741C14.7431 19.5152 14.2646 19.0246 13.9228 18.3904C13.581 17.7563 13.3987 17.0384 13.3987 16.2487C13.3987 15.447 13.5696 14.7291 13.9 14.1069C14.2304 13.4728 14.6861 12.9822 15.2672 12.6232C15.8483 12.2762 16.5091 12.0968 17.2497 12.0968C17.9447 12.0968 18.5713 12.2643 19.1296 12.5993C19.6878 12.9343 20.1322 13.389 20.4626 13.9873C20.793 14.5736 20.9639 15.2556 20.9867 16.0094L14.5836 17.3136C14.7773 17.9836 15.1419 18.4981 15.6546 18.881C16.1787 19.2639 16.7939 19.4434 17.5117 19.4434C17.9902 19.4434 18.446 19.3477 18.8561 19.1682V19.1562Z" fill="#2E352E"/>
<path fill-rule="evenodd" clip-rule="evenodd" d="M28.2214 19.0365C28.6658 18.7613 29.0076 18.3904 29.2582 17.8998C29.5089 17.4092 29.6342 16.8588 29.6342 16.2486C29.6342 15.6384 29.5089 15.088 29.2582 14.5974C29.0076 14.1068 28.6658 13.724 28.2214 13.4488C27.7771 13.1736 27.2758 13.0419 26.7289 13.0419C26.1706 13.0419 25.6807 13.1736 25.2364 13.4488C24.792 13.724 24.4502 14.0949 24.211 14.5735C23.9717 15.0521 23.8464 15.6145 23.8464 16.2366C23.8464 16.8588 23.9717 17.4092 24.211 17.8998C24.4502 18.3904 24.792 18.7613 25.2364 19.0365C25.6807 19.3117 26.1706 19.4433 26.7289 19.4433C27.2872 19.4433 27.7771 19.3117 28.2214 19.0365ZM28.7797 12.6112C29.3722 12.9582 29.8393 13.4607 30.1697 14.0949C30.5001 14.729 30.671 15.4469 30.671 16.2606C30.671 17.0742 30.5115 17.7921 30.1811 18.4143C29.8507 19.0365 29.4064 19.5271 28.8253 19.886C28.2442 20.245 27.5834 20.4125 26.8428 20.4125C26.1934 20.4125 25.6124 20.2689 25.0996 19.9937C24.5869 19.7185 24.1768 19.3237 23.8578 18.8092V23.3559H22.8096V16.2725C22.8096 15.4589 22.9805 14.729 23.3109 14.0949C23.6413 13.4607 24.1084 12.9702 24.7009 12.6112C25.2933 12.2642 25.9883 12.0847 26.7517 12.0847C27.5151 12.0847 28.1873 12.2642 28.7797 12.6112Z" fill="#2E352E"/>
<path fill-rule="evenodd" clip-rule="evenodd" d="M41.6543 12.1447V20.3289H40.6859V13.8557L37.5299 19.3358H37.0514L33.8954 13.8438V20.3289H32.9384V12.1447H33.9979L37.3134 18.0436L40.6745 12.1447H41.6543Z" fill="#2E352E"/>
<path fill-rule="evenodd" clip-rule="evenodd" d="M46.2231 13.4249C45.7901 13.6881 45.4597 14.059 45.2204 14.5257C44.9812 15.0043 44.8559 15.5427 44.8559 16.153C44.8559 16.3085 44.8559 16.4162 44.8672 16.4999L50.3703 15.3752C50.2563 14.6932 49.9487 14.1308 49.4702 13.6881C48.9803 13.2454 48.3878 13.03 47.6928 13.03C47.1459 13.03 46.6674 13.1617 46.2345 13.4249H46.2231ZM49.2879 19.1562C49.6981 18.9767 50.0513 18.7135 50.3361 18.3545L50.9285 19.0725C50.5867 19.5032 50.1538 19.8382 49.6411 20.0656C49.1284 20.2929 48.5587 20.4126 47.9321 20.4126C47.1345 20.4126 46.4168 20.2331 45.8015 19.8741C45.1749 19.5152 44.6963 19.0246 44.3545 18.3904C44.0127 17.7563 43.8304 17.0384 43.8304 16.2487C43.8304 15.447 44.0013 14.7291 44.3318 14.1069C44.6622 13.4728 45.1179 12.9822 45.699 12.6232C46.28 12.2762 46.9408 12.0968 47.6814 12.0968C48.3764 12.0968 49.0031 12.2643 49.5613 12.5993C50.1196 12.9343 50.564 13.389 50.8944 13.9873C51.2248 14.5736 51.3957 15.2556 51.4185 16.0094L45.0154 17.3136C45.209 17.9836 45.5736 18.4981 46.0863 18.881C46.6104 19.2639 47.2257 19.4434 47.9435 19.4434C48.422 19.4434 48.8777 19.3477 49.2879 19.1682V19.1562Z" fill="#2E352E"/>
<path fill-rule="evenodd" clip-rule="evenodd" d="M79.5602 12.9704C80.1185 13.5567 80.3919 14.4301 80.3919 15.5907V20.3409H79.3437V15.6984C79.3437 14.8489 79.15 14.2028 78.7626 13.7481C78.3753 13.3054 77.817 13.0781 77.1106 13.0781C76.3017 13.0781 75.6636 13.3413 75.1965 13.8678C74.7294 14.3942 74.5015 15.1121 74.5015 16.0335V20.329H73.4533V15.6865C73.4533 14.8369 73.2596 14.1908 72.8722 13.7361C72.4849 13.2934 71.9266 13.0661 71.2088 13.0661C70.4113 13.0661 69.7732 13.3293 69.3061 13.8558C68.839 14.3823 68.5997 15.1002 68.5997 16.0215V20.317H67.5515V12.1328H68.5541V13.6285C68.8276 13.1259 69.215 12.743 69.7049 12.4798C70.1948 12.2046 70.7645 12.073 71.4139 12.073C72.0633 12.073 72.633 12.2166 73.1115 12.5037C73.59 12.7909 73.9546 13.2216 74.1825 13.796C74.4673 13.2575 74.8775 12.8388 75.4244 12.5277C75.9599 12.2166 76.5751 12.073 77.2701 12.073C78.2499 12.073 79.0133 12.3721 79.5716 12.9584L79.5602 12.9704Z" fill="#2E352E"/>
<path fill-rule="evenodd" clip-rule="evenodd" d="M88.2078 19.0365C88.6521 18.7613 88.9939 18.3904 89.2446 17.8998C89.4952 17.4092 89.6206 16.8588 89.6206 16.2486C89.6206 15.6384 89.4952 15.088 89.2446 14.5974C88.9939 14.1068 88.6521 13.724 88.2078 13.4488C87.7634 13.1736 87.2621 13.0419 86.7152 13.0419C86.157 13.0419 85.667 13.1736 85.2227 13.4488C84.7784 13.724 84.4366 14.0949 84.1973 14.5735C83.958 15.0521 83.8327 15.6145 83.8327 16.2366C83.8327 16.8588 83.958 17.4092 84.1973 17.8998C84.4366 18.3904 84.7784 18.7613 85.2227 19.0365C85.667 19.3117 86.157 19.4433 86.7152 19.4433C87.2621 19.4433 87.7634 19.3117 88.2078 19.0365ZM88.766 12.6112C89.3585 12.9582 89.8256 13.4607 90.156 14.0949C90.4865 14.729 90.6574 15.4469 90.6574 16.2606C90.6574 17.0742 90.4978 17.7921 90.1674 18.4143C89.837 19.0365 89.3927 19.5271 88.8116 19.886C88.2306 20.245 87.5697 20.4125 86.8292 20.4125C86.1797 20.4125 85.5987 20.2689 85.086 19.9937C84.5733 19.7185 84.1631 19.3237 83.8441 18.8092V23.3559H82.7959V16.2725C82.7959 15.4589 82.9668 14.729 83.2972 14.0949C83.6276 13.4607 84.0947 12.9702 84.6872 12.6112C85.2797 12.2642 85.9633 12.0847 86.738 12.0847C87.5014 12.0847 88.1736 12.2642 88.766 12.6112Z" fill="#2E352E"/>
<path fill-rule="evenodd" clip-rule="evenodd" d="M97.5504 19.0246C97.9947 18.7613 98.3365 18.3784 98.5872 17.8998C98.8378 17.4093 98.9632 16.8589 98.9632 16.2367C98.9632 15.6145 98.8378 15.0641 98.5872 14.5735C98.3365 14.0829 97.9947 13.712 97.5504 13.4488C97.106 13.1856 96.6161 13.0539 96.0806 13.0539C95.5224 13.0539 95.0324 13.1856 94.5881 13.4488C94.1438 13.712 93.8019 14.0949 93.5513 14.5735C93.3006 15.0641 93.1753 15.6145 93.1753 16.2367C93.1753 16.8589 93.3006 17.4093 93.5513 17.8998C93.8019 18.3904 94.1438 18.7613 94.5881 19.0246C95.0324 19.2878 95.5224 19.4194 96.0806 19.4194C96.6275 19.4194 97.1174 19.2878 97.5504 19.0246ZM100 12.1326V20.3168H98.9973V18.7015C98.6783 19.2519 98.2682 19.6707 97.7441 19.9578C97.2314 20.245 96.6389 20.3886 95.9895 20.3886C95.2603 20.3886 94.5995 20.2091 94.007 19.8621C93.4146 19.5151 92.9474 19.0126 92.617 18.3784C92.2752 17.7443 92.1157 17.0264 92.1157 16.2127C92.1157 15.3991 92.2866 14.6812 92.617 14.047C92.9474 13.4129 93.4146 12.9223 94.007 12.5753C94.5995 12.2283 95.2603 12.0489 95.9895 12.0489C96.6275 12.0489 97.1972 12.1924 97.6985 12.4676C98.2112 12.7428 98.6214 13.1497 98.9518 13.6761V12.1206H100V12.1326Z" fill="#2E352E"/>
<path fill-rule="evenodd" clip-rule="evenodd" d="M63.8259 20.4723C62.9258 21.8244 61.7864 22.9012 60.499 23.8106C60.4648 23.8345 60.4306 23.8465 60.4306 23.8465C61.1712 22.7935 61.9687 21.7406 62.6751 20.6159C62.7207 20.5441 62.7663 20.4603 62.8118 20.3885C63.4043 19.3835 63.8031 18.2827 63.86 17.0502C63.86 17.0263 63.86 17.0144 63.86 16.9904L63.9398 16.7511C63.917 16.6434 63.7461 16.6434 63.6436 16.6434L54.6883 16.6913C54.5972 16.6913 54.4263 16.6195 54.3921 16.7033C54.3807 16.7511 54.4491 17.0502 54.4605 17.0981C54.563 17.5289 54.6542 17.9476 54.7909 18.3545C55.0529 19.0963 55.4061 19.7663 55.8277 20.4005H54.1415C53.8224 19.8262 53.6288 19.3595 53.4351 18.7134C53.2414 18.0553 53.1274 17.3613 53.1274 16.6554C53.1274 16.3084 53.1616 15.9614 53.2186 15.6144C53.2756 15.2674 53.3553 14.9444 53.4692 14.6213C53.5718 14.2983 53.6971 13.9872 53.8452 13.688C53.9819 13.3889 54.1415 13.1017 54.3124 12.8265C54.4719 12.5753 54.6314 12.336 54.8023 12.0967H55.7935C55.1783 13.1017 54.6997 14.2025 54.4719 15.4589C54.4605 15.4948 54.3921 15.746 54.4035 15.7819C54.4263 15.8777 54.6314 15.8298 54.7453 15.8298L63.5752 15.8777C63.6664 15.8777 63.8031 15.8777 63.8373 15.7939C63.86 15.746 63.7803 15.4708 63.7575 15.411C63.7119 15.2794 63.6664 15.1597 63.6208 15.0401C63.4955 14.6811 63.3701 14.3342 63.2106 13.9991C63.1878 13.9513 63.165 13.9034 63.1423 13.8555C63.1195 13.8077 63.0853 13.7479 63.0625 13.7C62.7777 13.1257 62.4359 12.5872 62.0599 12.0967C61.4332 11.2591 60.7155 10.5173 59.9407 9.81131C59.1546 9.0934 58.3001 8.47121 57.5367 7.74133C57.343 7.56185 57.1607 7.37041 56.967 7.19093C56.8645 7.08325 56.7733 6.98752 56.6822 6.87984C56.4657 6.64053 56.272 6.40123 56.0783 6.16193C55.8846 5.91066 55.691 5.65939 55.5087 5.39615C55.1441 4.86969 54.8251 4.31929 54.5516 3.74496C54.2896 3.15866 54.0731 2.54844 53.9478 1.92625C53.8224 1.29209 53.7883 0.645974 53.868 0.0237846C53.9819 0.897243 54.2668 1.71088 54.6542 2.46468L59.7926 2.95526L55.201 3.39797C55.5087 3.86461 55.8619 4.30732 56.2265 4.7261L58.9381 5.15685L56.9328 5.47991C57.1151 5.65939 57.2974 5.8628 57.4911 6.01834C57.981 6.42516 58.357 6.66446 58.8128 7.02342C59.4166 7.50203 60.0319 7.96867 60.6243 8.45924C62.0941 9.65576 63.3473 11.0557 64.236 12.7787C65.6146 15.4349 65.4551 18.0194 63.8145 20.4962L63.8259 20.4723Z" fill="#942D28"/>
<path fill-rule="evenodd" clip-rule="evenodd" d="M54.95 28.5011C54.9387 28.525 54.9161 28.549 54.9048 28.573C54.9161 28.549 54.9387 28.525 54.9613 28.5011H54.95Z" fill="#74685F"/>
<path fill-rule="evenodd" clip-rule="evenodd" d="M65.1133 17.2538C65.0677 17.6008 64.9879 17.9358 64.8968 18.2589C64.8056 18.5819 64.6803 18.893 64.5436 19.2041C64.4069 19.5032 64.2588 19.8024 64.0879 20.0776C64.0309 20.1733 63.9739 20.281 63.9056 20.3767C63.8942 20.3887 63.8942 20.4006 63.8828 20.4126H62.8118C63.2447 19.6229 63.5979 18.7853 63.7688 17.9478C63.8258 17.6726 63.8486 17.3854 63.8714 17.1102C63.8714 17.0743 63.8714 17.0384 63.8714 17.0025C63.8714 16.9188 63.8828 16.835 63.8828 16.7632H54.4262C54.4262 16.835 54.4376 16.8948 54.449 16.9666C54.5288 17.4333 54.6313 17.8281 54.7566 18.2469C54.9275 18.7853 55.1668 19.2998 55.463 19.7904C55.5884 20.0058 55.6909 20.2092 55.839 20.4126H54.1186C53.7996 19.8383 53.6059 19.3716 53.4122 18.7135C53.2185 18.0555 53.0932 17.3495 53.1046 16.6436C53.1046 16.2966 53.1388 15.9376 53.1957 15.6026C53.2527 15.2556 53.3325 14.9206 53.4464 14.5975C53.5489 14.2745 53.6743 13.9634 53.8224 13.6642C53.9591 13.3651 54.1186 13.066 54.2895 12.7908C54.449 12.5395 54.6313 12.2882 54.8136 12.0609H55.8162C55.4061 12.7429 55.0643 13.4489 54.8136 14.1668C54.8136 14.1787 54.8022 14.1907 54.8022 14.2027C54.8022 14.2146 54.8022 14.2146 54.7908 14.2266V14.2386C54.7111 14.4779 54.6427 14.7172 54.5857 14.9565C54.5402 15.1479 54.4946 15.3154 54.449 15.5428C54.4376 15.6026 54.4376 15.6744 54.4262 15.7342H63.803C63.7916 15.6744 63.7802 15.6146 63.7688 15.5667C63.7347 15.3872 63.6549 15.2317 63.5979 15.0522C63.5638 14.9325 63.5182 14.8129 63.484 14.6932C63.3929 14.4659 63.3017 14.2386 63.1992 14.0112C63.1764 13.9634 63.1536 13.9155 63.1308 13.8676C63.108 13.8198 63.0738 13.76 63.0511 13.7121C62.9599 13.5326 62.8688 13.3292 62.7662 13.1497C62.5497 12.7788 62.3105 12.4199 62.0484 12.0729H63.8714C63.9283 12.1686 63.9853 12.2523 64.0309 12.3481C64.3613 12.9224 64.6461 13.5326 64.8512 14.1907C65.0563 14.8488 65.1816 15.5308 65.193 16.2367C65.2044 16.5837 65.1702 16.9307 65.1247 17.2777L65.1133 17.2538Z" fill="#2E352E"/>
<path fill-rule="evenodd" clip-rule="evenodd" d="M51.6919 18.0549C51.5437 17.8876 51.3956 17.7202 51.2247 17.5528C51.3045 17.6245 51.3615 17.6843 51.4412 17.7561C51.5324 17.8397 51.6121 17.9473 51.7033 18.043L51.6919 18.0549Z" fill="#74685F"/>
</svg>
