<svg width="80" height="80" viewBox="0 0 80 80" fill="none" xmlns="http://www.w3.org/2000/svg">
<path d="M40 0C62.0564 0 80 17.9469 80 40C80 62.0598 62.0565 80 40 80C17.9402 80 0 62.0598 0 40C3.16014e-06 32.3522 2.17116 24.9057 6.27734 18.4844C7.06704 17.2448 8.71626 16.882 9.95605 17.6748C11.1993 18.4678 11.5625 20.118 10.7695 21.3613C7.21119 26.9224 5.33301 33.3704 5.33301 40C5.33301 59.1163 20.8837 74.667 40 74.667C59.1163 74.667 74.6641 59.1163 74.6641 40C74.6641 20.8871 59.1163 5.33594 40 5.33594C33.3065 5.33594 26.8013 7.25163 21.21 10.8672C19.9668 11.6601 18.3237 11.3105 17.5205 10.0742C16.7208 8.83766 17.0736 7.18743 18.3135 6.3877C24.7751 2.21105 32.275 8.07904e-07 40 0ZM40 10.6719C56.1693 10.6719 69.331 23.8306 69.3311 40C69.3311 44.7714 68.162 49.5091 65.9443 53.6992C65.2589 54.9963 63.6489 55.4974 62.3418 54.8086C61.0382 54.1197 60.5412 52.5068 61.2334 51.2031C63.0412 47.7824 64.002 43.9079 64.002 40C64.0019 26.7708 53.2325 16.001 40 16.001C26.7675 16.001 15.9981 26.7708 15.998 40C15.998 53.2359 26.7675 64.002 40 64.002C43.9012 64.002 47.6209 63.0981 51.0449 61.3105C52.3554 60.6284 53.9648 61.1459 54.6436 62.4463C55.3223 63.7501 54.8149 65.3666 53.5078 66.042C49.3715 68.1958 44.7008 69.3311 40 69.3311C23.8273 69.3311 10.6689 56.1727 10.6689 40C10.669 23.8307 23.8273 10.6719 40 10.6719Z" fill="white"/>
<path d="M44.125 24.083C44.5179 24.0834 44.8959 24.2339 45.1816 24.5036C45.4673 24.7734 45.6393 25.1421 45.6623 25.5343C45.6853 25.9266 45.5577 26.3128 45.3055 26.6142C45.0533 26.9155 44.6956 27.1091 44.3054 27.1555L44.125 27.1663C43.0566 27.1663 42.0746 28.2363 41.518 29.559C42.4691 29.075 43.5087 28.7896 44.5736 28.7203L44.9822 28.708C49.5794 28.708 53.375 33.4147 53.375 38.4513C53.375 43.9196 52.4407 47.4886 49.6395 51.6758C47.031 55.146 43.331 55.92 39.7575 53.5782C39.6849 53.5318 39.6012 53.5059 39.5152 53.5032C39.4292 53.5005 39.3441 53.5211 39.2688 53.5628C35.669 55.9184 31.969 55.146 29.3096 51.6048C26.5608 47.4917 25.625 43.9212 25.625 38.4513L25.6312 38.1091C25.7977 33.205 29.5254 28.708 34.0178 28.708C35.467 28.708 36.873 29.1566 38.1618 29.929C38.8078 26.9228 40.9646 24.083 44.125 24.083ZM33.2809 33.5704C31.1842 34.8932 30.25 36.7463 30.25 39.4997C30.25 39.9085 30.4124 40.3007 30.7015 40.5898C30.9907 40.8789 31.3828 41.0413 31.7917 41.0413C32.2005 41.0413 32.5927 40.8789 32.8818 40.5898C33.1709 40.3007 33.3333 39.9085 33.3333 39.4997C33.3333 37.7653 33.765 36.9128 34.9274 36.1789C35.2733 35.9606 35.5183 35.6138 35.6085 35.2148C35.6987 34.8158 35.6268 34.3973 35.4084 34.0514C35.1901 33.7055 34.8433 33.4605 34.4443 33.3703C34.0453 33.2801 33.6268 33.3521 33.2809 33.5704Z" fill="white"/>
</svg>
