<svg width="80" height="80" viewBox="0 0 80 80" fill="none" xmlns="http://www.w3.org/2000/svg">
<path d="M40 0C62.0565 0 80 17.9469 80 40C80 62.0598 62.0565 80 40 80C17.9402 80 0 62.0598 0 40C3.16014e-06 32.3522 2.17116 24.9057 6.27734 18.4844C7.06704 17.2448 8.71626 16.882 9.95605 17.6748C11.1993 18.4678 11.5625 20.118 10.7695 21.3613C7.21119 26.9224 5.33301 33.3704 5.33301 40C5.33301 59.1163 20.8837 74.667 40 74.667C59.1163 74.667 74.6641 59.1163 74.6641 40C74.6641 20.8871 59.1163 5.33594 40 5.33594C33.3065 5.33594 26.8013 7.25163 21.21 10.8672C19.9668 11.6601 18.3237 11.3105 17.5205 10.0742C16.7208 8.83766 17.0736 7.18743 18.3135 6.3877C24.7751 2.21105 32.275 3.18655e-06 40 0ZM40 10.6719C56.1694 10.6719 69.331 23.8306 69.3311 40C69.3311 44.7714 68.162 49.5091 65.9443 53.6992C65.2589 54.9963 63.6489 55.4974 62.3418 54.8086C61.0382 54.1197 60.5413 52.5068 61.2334 51.2031C63.0412 47.7824 64.002 43.9079 64.002 40C64.0019 26.7708 53.2325 16.001 40 16.001C26.7675 16.001 15.9981 26.7708 15.998 40C15.998 53.2359 26.7675 64.0019 40 64.002C43.9012 64.002 47.6209 63.0981 51.0449 61.3105C52.3554 60.6284 53.9648 61.146 54.6436 62.4463C55.3223 63.7501 54.8149 65.3666 53.5078 66.042C49.3715 68.1958 44.7008 69.3311 40 69.3311C23.8273 69.331 10.6689 56.1727 10.6689 40C10.669 23.8307 23.8273 10.6719 40 10.6719Z" fill="white"/>
<path fill-rule="evenodd" clip-rule="evenodd" d="M50.0664 47.7778C46.7069 39.8336 42.7856 37.7398 42.7856 33.7778V29.1111H43.607C43.8248 29.1111 44.0338 29.0292 44.1878 28.8833C44.3418 28.7374 44.4284 28.5396 44.4284 28.3333V26.7778C44.4284 26.5715 44.3418 26.3737 44.1878 26.2278C44.0338 26.0819 43.8248 26 43.607 26H35.393C35.1752 26 34.9662 26.0819 34.8122 26.2278C34.6582 26.3737 34.5716 26.5715 34.5716 26.7778V28.3333C34.5716 28.5396 34.6582 28.7374 34.8122 28.8833C34.9662 29.0292 35.1752 29.1111 35.393 29.1111H36.2144V33.7778C36.2144 37.7398 32.2931 39.8336 28.9336 47.7778C27.8641 50.3056 25.1174 54 39.5 54C53.8827 54 51.1359 50.3056 50.0664 47.7778ZM47.41 50.5016C46.2568 50.8282 43.9618 51.2 39.5 51.2C35.0382 51.2 32.7432 50.8282 31.59 50.5016C31.1809 50.3864 31.0215 49.9369 31.1661 49.5247C31.5275 48.4824 32.2093 46.6811 33.4841 44.6698C36.5988 39.7558 39.8302 45.4429 42.5195 45.4429C45.2087 45.4429 44.4711 43.0147 45.5159 44.6698C46.4774 46.2011 47.2549 47.8296 47.8339 49.5247C47.9785 49.9369 47.8191 50.3849 47.41 50.5016Z" fill="white"/>
</svg>
