<svg width="80" height="80" viewBox="0 0 80 80" fill="none" xmlns="http://www.w3.org/2000/svg">
<path d="M40 0C62.0565 0 80 17.9469 80 40C80 62.0598 62.0565 80 40 80C17.9402 80 0 62.0598 0 40C3.16014e-06 32.3522 2.17116 24.9057 6.27734 18.4844C7.06704 17.2448 8.71626 16.882 9.95605 17.6748C11.1993 18.4678 11.5625 20.118 10.7695 21.3613C7.21119 26.9224 5.33301 33.3704 5.33301 40C5.33301 59.1163 20.8837 74.667 40 74.667C59.1163 74.667 74.6641 59.1163 74.6641 40C74.6641 20.8871 59.1163 5.33594 40 5.33594C33.3065 5.33594 26.8013 7.25163 21.21 10.8672C19.9668 11.6601 18.3237 11.3105 17.5205 10.0742C16.7208 8.83766 17.0736 7.18743 18.3135 6.3877C24.7751 2.21105 32.275 3.18655e-06 40 0ZM40 10.6719C56.1694 10.6719 69.331 23.8306 69.3311 40C69.3311 44.7714 68.162 49.5091 65.9443 53.6992C65.2589 54.9963 63.6489 55.4974 62.3418 54.8086C61.0382 54.1197 60.5413 52.5068 61.2334 51.2031C63.0412 47.7824 64.002 43.9079 64.002 40C64.0019 26.7708 53.2325 16.001 40 16.001C26.7675 16.001 15.9981 26.7708 15.998 40C15.998 53.2359 26.7675 64.0019 40 64.002C43.9012 64.002 47.6209 63.0981 51.0449 61.3105C52.3554 60.6284 53.9648 61.146 54.6436 62.4463C55.3223 63.7501 54.8149 65.3666 53.5078 66.042C49.3715 68.1958 44.7008 69.3311 40 69.3311C23.8273 69.331 10.6689 56.1727 10.6689 40C10.669 23.8307 23.8273 10.6719 40 10.6719Z" fill="white"/>
<g clip-path="url(#clip0_1581_2689)">
<path d="M40.1818 25.0303C31.8272 25.0303 25.0303 31.8272 25.0303 40.1818V46.4591C25.0303 48.0106 26.3894 49.2727 28.0606 49.2727H29.5757C29.9776 49.2727 30.363 49.1131 30.6471 48.8289C30.9312 48.5448 31.0909 48.1594 31.0909 47.7575V39.9651C31.0909 39.5633 30.9312 39.1779 30.6471 38.8937C30.363 38.6096 29.9776 38.45 29.5757 38.45H28.2C29.0424 32.5863 34.0878 28.0606 40.1818 28.0606C46.2757 28.0606 51.3212 32.5863 52.1636 38.45H50.7879C50.386 38.45 50.0006 38.6096 49.7165 38.8937C49.4323 39.1779 49.2727 39.5633 49.2727 39.9651V49.2727C49.2727 50.9439 47.9136 52.303 46.2424 52.303H43.2121V50.7879H37.1515V55.3333H46.2424C49.5848 55.3333 52.303 52.6151 52.303 49.2727C53.9742 49.2727 55.3333 48.0106 55.3333 46.4591V40.1818C55.3333 31.8272 48.5363 25.0303 40.1818 25.0303Z" fill="white"/>
</g>
<defs>
<clipPath id="clip0_1581_2689">
<rect width="36.3636" height="36.3636" fill="white" transform="translate(22 22)"/>
</clipPath>
</defs>
</svg>
