<svg width="80" height="80" viewBox="0 0 80 80" fill="none" xmlns="http://www.w3.org/2000/svg">
<path d="M40 0C62.0565 0 80 17.9469 80 40C80 62.0598 62.0565 80 40 80C17.9402 80 0 62.0598 0 40C3.16014e-06 32.3522 2.17116 24.9057 6.27734 18.4844C7.06704 17.2448 8.71626 16.882 9.95605 17.6748C11.1993 18.4678 11.5625 20.118 10.7695 21.3613C7.21119 26.9224 5.33301 33.3704 5.33301 40C5.33301 59.1163 20.8837 74.667 40 74.667C59.1163 74.667 74.6641 59.1163 74.6641 40C74.6641 20.8871 59.1163 5.33594 40 5.33594C33.3065 5.33594 26.8013 7.25163 21.21 10.8672C19.9668 11.6601 18.3237 11.3105 17.5205 10.0742C16.7208 8.83766 17.0736 7.18743 18.3135 6.3877C24.7751 2.21105 32.275 3.18655e-06 40 0ZM40 10.6719C56.1694 10.6719 69.331 23.8306 69.3311 40C69.3311 44.7714 68.162 49.5091 65.9443 53.6992C65.2589 54.9963 63.6489 55.4974 62.3418 54.8086C61.0382 54.1197 60.5413 52.5068 61.2334 51.2031C63.0412 47.7824 64.002 43.9079 64.002 40C64.0019 26.7708 53.2325 16.001 40 16.001C26.7675 16.001 15.9981 26.7708 15.998 40C15.998 53.2359 26.7675 64.0019 40 64.002C43.9012 64.002 47.6209 63.0981 51.0449 61.3105C52.3554 60.6284 53.9648 61.146 54.6436 62.4463C55.3223 63.7501 54.8149 65.3666 53.5078 66.042C49.3715 68.1958 44.7008 69.3311 40 69.3311C23.8273 69.331 10.6689 56.1727 10.6689 40C10.669 23.8307 23.8273 10.6719 40 10.6719Z" fill="white"/>
<path d="M49.1615 33.5C49.4957 33.1667 49.921 33 50.4375 33C50.954 33 51.3793 33.1667 51.7135 33.5L56.4531 38.2273C56.8177 38.5909 57 39.0152 57 39.5C57 39.9848 56.8177 40.4091 56.4531 40.7727L51.7135 45.5C51.3793 45.8333 50.9613 46 50.4594 46C49.9575 46 49.5248 45.8333 49.1615 45.5C48.7969 45.1364 48.6146 44.7042 48.6146 44.2036C48.6146 43.703 48.7969 43.2715 49.1615 42.9091L50.7565 41.3182H28.2435L29.8841 42.9545C30.2183 43.2879 30.3854 43.7048 30.3854 44.2055C30.3854 44.7061 30.2031 45.1376 29.8385 45.5C29.5043 45.8333 29.079 46 28.5625 46C28.046 46 27.6207 45.8333 27.2865 45.5L22.5469 40.7727C22.1823 40.4091 22 39.9848 22 39.5C22 39.0152 22.1823 38.5909 22.5469 38.2273L27.2865 33.5C27.6207 33.1667 28.0387 33 28.5406 33C29.0425 33 29.4752 33.1667 29.8385 33.5C30.2031 33.8636 30.3854 34.2958 30.3854 34.7964C30.3854 35.297 30.2031 35.7285 29.8385 36.0909L28.2435 37.6818H50.7565L49.1159 36.0455C48.7817 35.7121 48.6146 35.2952 48.6146 34.7945C48.6146 34.2939 48.7969 33.8624 49.1615 33.5Z" fill="white"/>
</svg>
