<svg width="80" height="80" viewBox="0 0 80 80" fill="none" xmlns="http://www.w3.org/2000/svg">
<path d="M40 0C62.0565 0 80 17.9469 80 40C80 62.0598 62.0565 80 40 80C17.9402 80 0 62.0598 0 40C3.16014e-06 32.3522 2.17116 24.9057 6.27734 18.4844C7.06704 17.2448 8.71626 16.882 9.95605 17.6748C11.1993 18.4678 11.5625 20.118 10.7695 21.3613C7.21119 26.9224 5.33301 33.3704 5.33301 40C5.33301 59.1163 20.8837 74.667 40 74.667C59.1163 74.667 74.6641 59.1163 74.6641 40C74.6641 20.8871 59.1163 5.33594 40 5.33594C33.3065 5.33594 26.8013 7.25163 21.21 10.8672C19.9668 11.6601 18.3237 11.3105 17.5205 10.0742C16.7208 8.83766 17.0736 7.18743 18.3135 6.3877C24.7751 2.21105 32.275 3.18655e-06 40 0ZM40 10.6719C56.1694 10.6719 69.331 23.8306 69.3311 40C69.3311 44.7714 68.162 49.5091 65.9443 53.6992C65.2589 54.9963 63.6489 55.4974 62.3418 54.8086C61.0382 54.1197 60.5413 52.5068 61.2334 51.2031C63.0412 47.7824 64.002 43.9079 64.002 40C64.0019 26.7708 53.2325 16.001 40 16.001C26.7675 16.001 15.9981 26.7708 15.998 40C15.998 53.2359 26.7675 64.0019 40 64.002C43.9012 64.002 47.6209 63.0981 51.0449 61.3105C52.3554 60.6284 53.9648 61.146 54.6436 62.4463C55.3223 63.7501 54.8149 65.3666 53.5078 66.042C49.3715 68.1958 44.7008 69.3311 40 69.3311C23.8273 69.331 10.6689 56.1727 10.6689 40C10.669 23.8307 23.8273 10.6719 40 10.6719Z" fill="white"/>
<path d="M36.4182 47.8467L35.0633 49.1933C34.4957 49.752 33.7312 50.0651 32.9348 50.0651C32.1383 50.0651 31.3738 49.752 30.8062 49.1933C30.5295 48.9192 30.3098 48.593 30.1599 48.2336C30.0099 47.8741 29.9327 47.4885 29.9327 47.099C29.9327 46.7095 30.0099 46.3239 30.1599 45.9645C30.3098 45.605 30.5295 45.2788 30.8062 45.0048L35.7909 40.0619C36.823 39.0365 38.7667 37.5277 40.1835 38.9328C40.336 39.0953 40.5196 39.2255 40.7235 39.3156C40.9274 39.4056 41.1474 39.4537 41.3702 39.4568C41.5931 39.46 41.8143 39.4183 42.0207 39.3341C42.227 39.2499 42.4143 39.125 42.5714 38.9668C42.7284 38.8086 42.852 38.6205 42.9347 38.4135C43.0174 38.2065 43.0576 37.985 43.0528 37.7622C43.0481 37.5393 42.9985 37.3197 42.907 37.1165C42.8155 36.9133 42.684 36.7305 42.5203 36.5792C40.1149 34.1906 36.5554 34.6322 33.4558 37.7083L28.4711 42.6529C27.8821 43.2336 27.4148 43.9259 27.0966 44.6893C26.7784 45.4527 26.6155 46.2719 26.6177 47.099C26.6156 47.9261 26.7785 48.7453 27.0967 49.5087C27.4149 50.2721 27.8822 50.9644 28.4711 51.5451C29.6582 52.7226 31.2635 53.3818 32.9356 53.3784C34.5531 53.3784 36.1706 52.7679 37.4001 51.5451L38.7567 50.1986C38.9114 50.0456 39.0344 49.8635 39.1185 49.6629C39.2027 49.4623 39.2464 49.247 39.2472 49.0294C39.248 48.8118 39.2058 48.5962 39.1231 48.395C39.0403 48.1938 38.9186 48.0109 38.765 47.8568C38.4545 47.5454 38.0334 47.3696 37.5937 47.3677C37.154 47.3658 36.7314 47.538 36.4182 47.8467ZM51.5263 28.6371C48.9386 26.0712 45.3221 25.9323 42.9301 28.3076L41.2424 29.9837C40.9305 30.2933 40.7544 30.7142 40.7528 31.1537C40.7512 31.5932 40.9243 32.0153 41.234 32.3272C41.5436 32.639 41.9645 32.8151 42.404 32.8167C42.8435 32.8183 43.2656 32.6452 43.5775 32.3355L45.2669 30.6611C46.5048 29.43 48.129 29.9402 49.1912 30.9906C49.7532 31.551 50.0643 32.2937 50.0643 33.0849C50.0643 33.8761 49.7532 34.6188 49.1912 35.1775L43.8719 40.4533C41.4397 42.8637 40.2989 41.7346 39.8122 41.2512C39.6577 41.0978 39.4746 40.9764 39.2733 40.8939C39.0719 40.8113 38.8563 40.7692 38.6387 40.77C38.4211 40.7708 38.2057 40.8144 38.005 40.8984C37.8042 40.9824 37.622 41.1051 37.4687 41.2595C37.3154 41.4139 37.1939 41.5971 37.1114 41.7984C37.0288 41.9998 36.9867 42.2154 36.9875 42.433C36.9883 42.6506 37.0319 42.8659 37.1159 43.0667C37.1999 43.2674 37.3226 43.4497 37.477 43.603C38.5944 44.7104 39.869 45.259 41.2039 45.259C42.8381 45.259 44.5661 44.436 46.2104 42.8051L51.5296 37.531C52.1173 36.9495 52.5836 36.257 52.9015 35.4937C53.2194 34.7305 53.3825 33.9117 53.3813 33.0849C53.3828 32.2575 53.2196 31.4381 52.9011 30.6745C52.5826 29.9108 52.1152 29.2183 51.5263 28.6371Z" fill="white"/>
</svg>
