<svg width="80" height="80" viewBox="0 0 80 80" fill="none" xmlns="http://www.w3.org/2000/svg">
<path d="M40 0C62.0565 0 80 17.9469 80 40C80 62.0598 62.0565 80 40 80C17.9402 80 0 62.0598 0 40C3.16014e-06 32.3522 2.17116 24.9057 6.27734 18.4844C7.06704 17.2448 8.71626 16.882 9.95605 17.6748C11.1993 18.4678 11.5625 20.118 10.7695 21.3613C7.21119 26.9224 5.33301 33.3704 5.33301 40C5.33301 59.1163 20.8837 74.667 40 74.667C59.1163 74.667 74.6641 59.1163 74.6641 40C74.6641 20.8871 59.1163 5.33594 40 5.33594C33.3065 5.33594 26.8013 7.25163 21.21 10.8672C19.9668 11.6601 18.3237 11.3105 17.5205 10.0742C16.7208 8.83766 17.0736 7.18743 18.3135 6.3877C24.7751 2.21105 32.275 3.18655e-06 40 0ZM40 10.6719C56.1694 10.6719 69.331 23.8306 69.3311 40C69.3311 44.7714 68.162 49.5091 65.9443 53.6992C65.2589 54.9963 63.6489 55.4974 62.3418 54.8086C61.0382 54.1197 60.5413 52.5068 61.2334 51.2031C63.0412 47.7824 64.002 43.9079 64.002 40C64.0019 26.7708 53.2325 16.001 40 16.001C26.7675 16.001 15.9981 26.7708 15.998 40C15.998 53.2359 26.7675 64.0019 40 64.002C43.9012 64.002 47.6209 63.0981 51.0449 61.3105C52.3554 60.6284 53.9648 61.146 54.6436 62.4463C55.3223 63.7501 54.8149 65.3666 53.5078 66.042C49.3715 68.1958 44.7008 69.3311 40 69.3311C23.8273 69.331 10.6689 56.1727 10.6689 40C10.669 23.8307 23.8273 10.6719 40 10.6719Z" fill="white"/>
<path fill-rule="evenodd" clip-rule="evenodd" d="M50.0664 52.7778C46.7069 44.8336 42.7856 42.7398 42.7856 38.7778V34.1111H43.607C43.8248 34.1111 44.0338 34.0292 44.1878 33.8833C44.3418 33.7374 44.4284 33.5396 44.4284 33.3333V31.7778C44.4284 31.5715 44.3418 31.3737 44.1878 31.2278C44.0338 31.0819 43.8248 31 43.607 31H35.393C35.1752 31 34.9662 31.0819 34.8122 31.2278C34.6582 31.3737 34.5716 31.5715 34.5716 31.7778V33.3333C34.5716 33.5396 34.6582 33.7374 34.8122 33.8833C34.9662 34.0292 35.1752 34.1111 35.393 34.1111H36.2144V38.7778C36.2144 42.7398 32.2931 44.8336 28.9336 52.7778C27.8641 55.3056 25.1174 59 39.5 59C53.8827 59 51.1359 55.3056 50.0664 52.7778ZM47.41 55.5016C46.2568 55.8282 43.9618 56.2 39.5 56.2C35.0382 56.2 32.7432 55.8282 31.59 55.5016C31.1809 55.3864 31.0215 54.9369 31.1661 54.5247C31.5275 53.4824 32.2093 51.6811 33.4841 49.6698C36.5988 44.7558 39.8302 50.4429 42.5195 50.4429C45.2087 50.4429 44.4711 48.0147 45.5159 49.6698C46.4774 51.2011 47.2549 52.8296 47.8339 54.5247C47.9785 54.9369 47.8191 55.3849 47.41 55.5016Z" fill="white"/>
<path d="M35.0002 27.9348C34.8033 28.5071 34.486 28.8918 34.3899 29H36.6291C36.6334 28.9886 36.638 28.9781 36.6423 28.9664C37.0477 27.8674 37.3124 26.1256 36.2715 24.0696C35.7917 23.1219 35.709 22.2038 36.0194 21.2629C36.2588 20.5366 36.654 20.0557 36.701 20H34.4643C34.4284 20.0893 34.3933 20.1807 34.3601 20.276C33.9539 21.4403 33.6868 23.2579 34.7225 25.3032C35.1965 26.2395 35.2873 27.1003 35.0002 27.9348Z" fill="white"/>
<path d="M39.0002 27.9348C38.8033 28.5071 38.486 28.8918 38.3899 29H40.6291C40.6334 28.9886 40.638 28.9781 40.6423 28.9664C41.0477 27.8674 41.3124 26.1256 40.2715 24.0696C39.7917 23.1218 39.709 22.2038 40.0194 21.2629C40.2588 20.5366 40.654 20.0557 40.701 20H38.4643C38.4284 20.0893 38.3933 20.1807 38.3601 20.276C37.9539 21.4403 37.6868 23.2579 38.7225 25.3032C39.1965 26.2395 39.2873 27.1003 39.0002 27.9348Z" fill="white"/>
<path d="M43.0002 27.9348C42.8033 28.5071 42.486 28.8918 42.3899 29H44.6291C44.6334 28.9886 44.638 28.9781 44.6423 28.9664C45.0477 27.8674 45.3124 26.1256 44.2715 24.0696C43.7917 23.1218 43.709 22.2038 44.0194 21.2629C44.2588 20.5366 44.654 20.0557 44.701 20H42.4643C42.4284 20.0893 42.3933 20.1807 42.3601 20.276C41.9539 21.4403 41.6868 23.2579 42.7225 25.3032C43.1965 26.2395 43.2873 27.1003 43.0002 27.9348Z" fill="white"/>
</svg>
