<svg width="80" height="80" viewBox="0 0 80 80" fill="none" xmlns="http://www.w3.org/2000/svg">
<path d="M40 0C62.0564 0 80 17.9469 80 40C80 62.0598 62.0564 80 40 80C17.9402 80 0 62.0598 0 40C5.63933e-08 32.3521 2.17116 24.9057 6.27734 18.4844C7.06704 17.2448 8.71626 16.882 9.95605 17.6748C11.1993 18.4678 11.5625 20.118 10.7695 21.3613C7.21119 26.9224 5.33301 33.3704 5.33301 40C5.33301 59.1163 20.8837 74.667 40 74.667C59.1163 74.667 74.6641 59.1163 74.6641 40C74.6641 20.8871 59.1163 5.33594 40 5.33594C33.3065 5.33594 26.8013 7.25163 21.21 10.8672C19.9668 11.6601 18.3237 11.3105 17.5205 10.0742C16.7208 8.83766 17.0736 7.18743 18.3135 6.3877C24.7751 2.21105 32.275 5.68645e-08 40 0ZM40 10.6719C56.1694 10.6719 69.3311 23.8306 69.3311 40C69.3311 44.7714 68.162 49.5091 65.9443 53.6992C65.2589 54.9963 63.6489 55.4974 62.3418 54.8086C61.0382 54.1197 60.5413 52.5068 61.2334 51.2031C63.0412 47.7824 64.002 43.9079 64.002 40C64.002 26.7708 53.2325 16.001 40 16.001C26.7675 16.001 15.998 26.7708 15.998 40C15.998 53.2359 26.7675 64.002 40 64.002C43.9012 64.002 47.6209 63.0981 51.0449 61.3105C52.3554 60.6284 53.9648 61.1459 54.6436 62.4463C55.3223 63.7501 54.8149 65.3666 53.5078 66.042C49.3715 68.1958 44.7008 69.3311 40 69.3311C23.8273 69.3311 10.6689 56.1727 10.6689 40C10.6689 23.8306 23.8273 10.6719 40 10.6719Z" fill="white"/>
<path d="M39.6595 42.9114C40.9223 42.9114 42.1334 42.4245 43.0264 41.5578M39.6595 42.9114C38.3966 42.9114 37.1855 42.4245 36.2926 41.5578M39.6595 42.9114V46.3783M43.0264 41.5578C43.9193 40.691 44.421 39.5155 44.421 38.2897M43.0264 41.5578L45.5518 44.009M44.421 38.2897C44.421 37.064 43.9193 35.8884 43.0264 35.0217M44.421 38.2897H47.9928M43.0264 35.0217C42.1334 34.155 40.9223 33.6681 39.6595 33.6681M43.0264 35.0217L45.5518 32.5705M39.6595 33.6681C38.3966 33.6681 37.1855 34.155 36.2926 35.0217M39.6595 33.6681V30.2012M36.2926 35.0217C35.3996 35.8884 34.898 37.064 34.898 38.2897M36.2926 35.0217L33.7672 32.5705M34.898 38.2897C34.898 39.5155 35.3996 40.691 36.2926 41.5578M34.898 38.2897H31.3262M36.2926 41.5578L33.7672 44.009M38.8659 30.2012H40.4531M44.9902 32.0242L46.1133 33.1155M47.9928 37.5195V39.06M46.1133 43.4639L44.9902 44.554M40.4531 46.3783H38.8659M34.3287 44.554L33.2057 43.4639M31.3262 39.06V37.5195M33.2057 33.1155L34.3287 32.0255" stroke="white" stroke-width="1.5" stroke-linecap="round" stroke-linejoin="round"/>
<path d="M27 29.9496V39.4244C27 44.0573 29.0885 50.3751 38.1192 53.7511C39.008 54.083 39.992 54.083 40.8808 53.7511C49.9077 50.3813 52 44.0175 52 39.4244V29.9496C52.0026 29.593 51.8989 29.2433 51.7015 28.9426C51.504 28.6419 51.2212 28.403 50.8871 28.2548C47.2972 26.7338 43.4168 25.9659 39.5 26.0012C35.5832 25.9659 31.7028 26.7338 28.1129 28.2548C27.7788 28.403 27.496 28.6419 27.2985 28.9426C27.1011 29.2433 26.9974 29.593 27 29.9496Z" stroke="white" stroke-width="1.5" stroke-linecap="round" stroke-linejoin="round"/>
</svg>
