<svg width="80" height="80" viewBox="0 0 80 80" fill="none" xmlns="http://www.w3.org/2000/svg">
<path d="M40 0C62.0564 0 80 17.9469 80 40C80 62.0598 62.0565 80 40 80C17.9402 80 0 62.0598 0 40C3.16014e-06 32.3522 2.17116 24.9057 6.27734 18.4844C7.06704 17.2448 8.71626 16.882 9.95605 17.6748C11.1993 18.4678 11.5625 20.118 10.7695 21.3613C7.21119 26.9224 5.33301 33.3704 5.33301 40C5.33301 59.1163 20.8837 74.667 40 74.667C59.1163 74.667 74.6641 59.1163 74.6641 40C74.6641 20.8871 59.1163 5.33594 40 5.33594C33.3065 5.33594 26.8013 7.25163 21.21 10.8672C19.9668 11.6601 18.3237 11.3105 17.5205 10.0742C16.7208 8.83766 17.0736 7.18743 18.3135 6.3877C24.7751 2.21105 32.275 8.07904e-07 40 0ZM40 10.6719C56.1693 10.6719 69.331 23.8306 69.3311 40C69.3311 44.7714 68.162 49.5091 65.9443 53.6992C65.2589 54.9963 63.6489 55.4974 62.3418 54.8086C61.0382 54.1197 60.5412 52.5068 61.2334 51.2031C63.0412 47.7824 64.002 43.9079 64.002 40C64.0019 26.7708 53.2325 16.001 40 16.001C26.7675 16.001 15.9981 26.7708 15.998 40C15.998 53.2359 26.7675 64.002 40 64.002C43.9012 64.002 47.6209 63.0981 51.0449 61.3105C52.3554 60.6284 53.9648 61.1459 54.6436 62.4463C55.3223 63.7501 54.8149 65.3666 53.5078 66.042C49.3715 68.1958 44.7008 69.3311 40 69.3311C23.8273 69.3311 10.6689 56.1727 10.6689 40C10.669 23.8307 23.8273 10.6719 40 10.6719Z" fill="white"/>
<path d="M45.208 53.25V54.25H44.125V53.25H45.208ZM34.875 53.25V54.25H33.792V53.25H34.875ZM50.375 50.75V51.75H49.292V50.75H50.375ZM40.042 50.75V51.75H38.958V50.75H40.042ZM29.708 50.75V51.75H28.625V50.75H29.708ZM54.25 25.75V26.75H49.083V37.5C49.083 39.9452 48.0798 42.2955 46.2852 44.0322C44.4897 45.7697 42.0494 46.75 39.5 46.75C36.9506 46.75 34.5103 45.7697 32.7148 44.0322C30.9202 42.2955 29.917 39.9452 29.917 37.5V26.75H24.75V25.75H54.25ZM31 37.5C31 39.6959 31.9016 41.7967 33.498 43.3418C35.0939 44.8861 37.2534 45.75 39.5 45.75C41.7465 45.75 43.9061 44.8861 45.502 43.3418C47.0984 41.7967 48 39.6959 48 37.5V26.75H40.042V36.75H38.958V26.75H31V37.5Z" fill="white" stroke="white" stroke-width="1.5"/>
</svg>
