<svg width="80" height="80" viewBox="0 0 80 80" fill="none" xmlns="http://www.w3.org/2000/svg">
<path d="M40 0C62.0565 0 80 17.9469 80 40C80 62.0598 62.0565 80 40 80C17.9402 80 0 62.0598 0 40C3.16014e-06 32.3522 2.17116 24.9057 6.27734 18.4844C7.06704 17.2448 8.71626 16.882 9.95605 17.6748C11.1993 18.4678 11.5625 20.118 10.7695 21.3613C7.21119 26.9224 5.33301 33.3704 5.33301 40C5.33301 59.1163 20.8837 74.667 40 74.667C59.1163 74.667 74.6641 59.1163 74.6641 40C74.6641 20.8871 59.1163 5.33594 40 5.33594C33.3065 5.33594 26.8013 7.25163 21.21 10.8672C19.9668 11.6601 18.3237 11.3105 17.5205 10.0742C16.7208 8.83766 17.0736 7.18743 18.3135 6.3877C24.7751 2.21105 32.275 3.18655e-06 40 0ZM40 10.6719C56.1694 10.6719 69.331 23.8306 69.3311 40C69.3311 44.7714 68.162 49.5091 65.9443 53.6992C65.2589 54.9963 63.6489 55.4974 62.3418 54.8086C61.0382 54.1197 60.5413 52.5068 61.2334 51.2031C63.0412 47.7824 64.002 43.9079 64.002 40C64.0019 26.7708 53.2325 16.001 40 16.001C26.7675 16.001 15.9981 26.7708 15.998 40C15.998 53.2359 26.7675 64.0019 40 64.002C43.9012 64.002 47.6209 63.0981 51.0449 61.3105C52.3554 60.6284 53.9648 61.146 54.6436 62.4463C55.3223 63.7501 54.8149 65.3666 53.5078 66.042C49.3715 68.1958 44.7008 69.3311 40 69.3311C23.8273 69.331 10.6689 56.1727 10.6689 40C10.669 23.8307 23.8273 10.6719 40 10.6719Z" fill="white"/>
<path d="M49.9426 44.931C49.9418 44.9131 49.9409 44.8952 49.9399 44.8773C49.9211 43.7624 49.6713 42.6635 49.2064 41.65C52.9838 37.5792 55.0009 32.2981 55.0009 26.1002V25H53.9007C47.7028 25 42.4217 27.0171 38.3509 30.7945C37.3374 30.3296 36.2385 30.0798 35.1236 30.061C33.2366 29.9662 31.3893 30.6259 29.9893 31.8947C28.5737 33.1591 27.7386 34.9486 27.6788 36.8457L27.6055 37.9459L33.0332 38.2026C32.2809 39.8296 31.7268 41.5411 31.3829 43.3003C31.0528 44.9506 32.5931 46.6743 33.0699 47.1511C33.5466 47.6278 34.8302 48.728 36.0038 48.728H36.4072C38.2638 48.3597 40.0724 47.7813 41.7983 47.0044L42.055 52.4321L43.1552 52.3588C47.0806 52.1819 50.1194 48.8564 49.9426 44.931ZM48.5463 35.122C48.5402 36.0945 48.1592 37.0272 47.4828 37.7259C46.7921 38.419 45.8574 38.814 44.8789 38.8261C42.8415 38.8062 41.1947 37.1594 41.1748 35.122C41.1869 34.1436 41.5818 33.2088 42.2751 32.5182C42.9737 31.8417 43.9064 31.4607 44.8789 31.4546C46.884 31.4343 48.526 33.0432 48.5463 35.0483C48.5466 35.0729 48.5466 35.0974 48.5463 35.122Z" fill="white"/>
<path d="M30.5236 47.9368L25 53.4604L26.5559 55.0164L32.0795 49.4928L30.5236 47.9368Z" fill="white"/>
<path d="M30.823 52.3381L32.3789 53.894L35.802 50.471L34.246 48.9151L30.823 52.3381Z" fill="white"/>
<path d="M31.1243 45.7713L29.5684 44.2153L26.4565 47.3272L28.0124 48.8831L31.1243 45.7713Z" fill="white"/>
</svg>
