<svg width="80" height="80" viewBox="0 0 80 80" fill="none" xmlns="http://www.w3.org/2000/svg">
<path d="M40 0C62.0564 0 80 17.9469 80 40C80 62.0598 62.0565 80 40 80C17.9402 80 0 62.0598 0 40C3.16014e-06 32.3522 2.17116 24.9057 6.27734 18.4844C7.06704 17.2448 8.71626 16.882 9.95605 17.6748C11.1993 18.4678 11.5625 20.118 10.7695 21.3613C7.21119 26.9224 5.33301 33.3704 5.33301 40C5.33301 59.1163 20.8837 74.667 40 74.667C59.1163 74.667 74.6641 59.1163 74.6641 40C74.6641 20.8871 59.1163 5.33594 40 5.33594C33.3065 5.33594 26.8013 7.25163 21.21 10.8672C19.9668 11.6601 18.3237 11.3105 17.5205 10.0742C16.7208 8.83766 17.0736 7.18743 18.3135 6.3877C24.7751 2.21105 32.275 8.07904e-07 40 0ZM40 10.6719C56.1693 10.6719 69.331 23.8306 69.3311 40C69.3311 44.7714 68.162 49.5091 65.9443 53.6992C65.2589 54.9963 63.6489 55.4974 62.3418 54.8086C61.0382 54.1197 60.5412 52.5068 61.2334 51.2031C63.0412 47.7824 64.002 43.9079 64.002 40C64.0019 26.7708 53.2325 16.001 40 16.001C26.7675 16.001 15.9981 26.7708 15.998 40C15.998 53.2359 26.7675 64.002 40 64.002C43.9012 64.002 47.6209 63.0981 51.0449 61.3105C52.3554 60.6284 53.9648 61.1459 54.6436 62.4463C55.3223 63.7501 54.8149 65.3666 53.5078 66.042C49.3715 68.1958 44.7008 69.3311 40 69.3311C23.8273 69.3311 10.6689 56.1727 10.6689 40C10.669 23.8307 23.8273 10.6719 40 10.6719ZM55.2305 44.1016C55.2824 44.1094 55.3332 44.1237 55.3818 44.1436C55.4564 44.1745 55.5248 44.2192 55.582 44.2754C55.6393 44.3316 55.6846 44.3987 55.7158 44.4717C55.747 44.5448 55.7634 44.6233 55.7637 44.7021C55.764 44.781 55.7484 44.8592 55.7178 44.9316L55.5664 45.2861C56.0623 45.6242 56.4412 46.1032 56.6494 46.6562L57.0508 46.6025C57.2117 46.5806 57.3764 46.6219 57.5078 46.7178C57.6392 46.8136 57.727 46.9559 57.752 47.1133C57.7769 47.2708 57.7368 47.4307 57.6406 47.5576C57.5445 47.6844 57.4001 47.768 57.2393 47.79L56.8252 47.8457C56.8112 48.0602 56.7723 48.2723 56.709 48.4775C56.5998 48.811 56.4726 49.1384 56.3271 49.458L56.6455 49.6201C56.719 49.6559 56.7849 49.706 56.8389 49.7666C56.8927 49.827 56.9339 49.897 56.96 49.9727C56.986 50.0485 56.9961 50.1287 56.9902 50.208C56.9844 50.2874 56.9627 50.365 56.9258 50.4355C56.8889 50.506 56.8376 50.5685 56.7754 50.6191C56.7132 50.6697 56.6412 50.7076 56.5635 50.7305C56.4857 50.7534 56.4035 50.7613 56.3223 50.7529C56.241 50.7445 56.1619 50.72 56.0898 50.6816L55.7725 50.5215C55.4794 51.0011 55.1437 51.4542 54.7695 51.876L55.0264 52.1211C55.0872 52.1761 55.1365 52.242 55.1709 52.3154C55.2053 52.3889 55.224 52.4684 55.2266 52.5488C55.2291 52.6291 55.2152 52.7087 55.1855 52.7832C55.1559 52.8577 55.111 52.9255 55.0537 52.9824C54.9965 53.0393 54.9283 53.0849 54.8525 53.1152C54.7769 53.1455 54.6954 53.1602 54.6133 53.1592C54.5309 53.1581 54.4489 53.1407 54.373 53.1084C54.2972 53.0761 54.2283 53.0291 54.1709 52.9707L53.916 52.7285C53.4909 53.1038 53.0327 53.4418 52.5469 53.7393L52.7158 54.0361C52.7551 54.1056 52.7799 54.1823 52.7891 54.2607C52.7981 54.3391 52.7909 54.4188 52.7686 54.4941C52.7461 54.5694 52.7086 54.6395 52.6582 54.7002C52.6078 54.7609 52.5453 54.8109 52.4746 54.8477C52.3314 54.9222 52.1629 54.9378 52.0059 54.8916C51.8488 54.8453 51.7155 54.7409 51.6357 54.6006L51.4678 54.3037C50.9457 54.541 50.4023 54.7323 49.8447 54.877L49.9131 55.1963C49.9433 55.3518 49.9092 55.5116 49.8193 55.6416C49.7294 55.7717 49.5902 55.8619 49.4316 55.8916C49.2733 55.9212 49.1085 55.8883 48.9727 55.8008C48.8368 55.7132 48.7405 55.5774 48.7051 55.4229L48.6367 55.1055C48.2467 55.1586 47.8534 55.1893 47.459 55.1973C47.2648 55.2001 47.0703 55.1834 46.8789 55.1484L46.7314 55.4941C46.6693 55.6411 46.5495 55.757 46.3984 55.8164C46.2474 55.8758 46.0772 55.8744 45.9258 55.8115C45.7745 55.7486 45.6539 55.6297 45.5908 55.4814C45.5278 55.3332 45.5278 55.1674 45.5898 55.0205L45.7383 54.6719C45.2427 54.332 44.8648 53.8519 44.6572 53.2979L44.252 53.3525C44.0906 53.3744 43.9258 53.3323 43.7939 53.2363C43.6621 53.1403 43.5742 52.9977 43.5488 52.8398C43.5365 52.7618 43.5404 52.6826 43.5596 52.6064C43.5788 52.5302 43.6132 52.4583 43.6611 52.3955C43.709 52.3328 43.7688 52.2799 43.8379 52.2402C43.9071 52.2006 43.9846 52.1746 44.0645 52.1641L44.4873 52.1074C44.529 51.5375 44.7481 50.9961 45.1152 50.5557L44.8232 50.2129C44.7677 50.1521 44.7243 50.0817 44.6973 50.0049C44.6702 49.928 44.6593 49.8462 44.665 49.7656C44.6708 49.6851 44.6938 49.6066 44.7314 49.5352C44.7691 49.4638 44.8212 49.4005 44.8848 49.3496C44.9484 49.2987 45.0223 49.2615 45.1016 49.2393C45.1809 49.217 45.2643 49.2107 45.3467 49.2207C45.429 49.2308 45.5088 49.2572 45.5811 49.2979C45.653 49.3384 45.7162 49.3925 45.7666 49.457L46.0674 49.8096C46.4466 49.6244 46.8647 49.5244 47.291 49.5166C47.438 49.511 47.5851 49.4975 47.7305 49.4766L47.6348 49.1523C47.6126 49.0761 47.606 48.9963 47.6152 48.918C47.6246 48.8396 47.6501 48.7638 47.6895 48.6953C47.7288 48.6269 47.7814 48.5667 47.8447 48.5186C47.9082 48.4704 47.9817 48.4346 48.0596 48.4141C48.1373 48.3936 48.2186 48.3892 48.2988 48.3994C48.3793 48.4097 48.4576 48.4351 48.5283 48.4746C48.599 48.5141 48.6617 48.5662 48.7119 48.6289C48.7622 48.6916 48.7991 48.7635 48.8213 48.8398L48.9141 49.1553C48.9569 49.1365 49.0018 49.1209 49.0439 49.1016C49.1733 49.038 49.2992 48.968 49.4209 48.8916C49.5802 48.7941 49.7322 48.6854 49.876 48.5674C49.9852 48.4817 50.09 48.3903 50.1895 48.2939C50.2178 48.2652 50.2411 48.2318 50.2686 48.2021L49.9863 48.0195C49.9173 47.9762 49.8574 47.9202 49.8105 47.8545C49.7637 47.7888 49.7304 47.7146 49.7129 47.6367C49.6954 47.5588 49.6944 47.4784 49.709 47.4004C49.7236 47.3224 49.7534 47.2476 49.7979 47.1816C49.8423 47.1156 49.9004 47.0594 49.9678 47.0156C50.0352 46.9719 50.1115 46.9414 50.1914 46.9268C50.2712 46.9122 50.3538 46.913 50.4336 46.9297C50.5134 46.9464 50.5897 46.978 50.6572 47.0234L50.9453 47.2109C51.0253 47.0494 51.0944 46.8828 51.1514 46.7119C51.2683 46.352 51.4591 46.0196 51.7119 45.7354L51.4424 45.375C51.35 45.245 51.3127 45.0853 51.3389 44.9307C51.3651 44.7759 51.453 44.6379 51.583 44.5469C51.7129 44.4559 51.8748 44.4187 52.0342 44.4434C52.1936 44.4681 52.3377 44.5533 52.4355 44.6797L52.6895 45.0176C53.1963 44.7865 53.7634 44.7053 54.3213 44.7852C54.3563 44.7904 54.3917 44.8041 54.4268 44.8105L54.5762 44.458C54.6284 44.3359 54.7206 44.2344 54.8389 44.1699C54.9573 44.1055 55.0953 44.0812 55.2305 44.1016ZM45.0938 23.5283C45.4102 23.3373 45.788 23.2826 46.1436 23.377C46.4989 23.4713 46.803 23.707 46.9893 24.0312C47.1756 24.3557 47.2288 24.7429 47.1367 25.1074L46.916 25.9717C48.1217 26.5934 49.1097 27.584 49.7432 28.8057L50.624 28.5381C50.9754 28.4309 51.3541 28.471 51.6768 28.6494C51.9992 28.8278 52.2401 29.1296 52.3457 29.4893C52.3974 29.6673 52.4135 29.8543 52.3945 30.0391C52.3756 30.2238 52.322 30.4033 52.2354 30.5664C52.1487 30.7296 52.0307 30.8736 51.8896 30.9902C51.7487 31.1067 51.5868 31.1939 51.4131 31.2461L50.4922 31.5254C50.5775 32.8702 50.2609 34.21 49.584 35.3652L50.3379 36.0625C50.4801 36.1851 50.5966 36.3359 50.6807 36.5059C50.7647 36.6759 50.8148 36.8616 50.8271 37.0518C50.8395 37.2418 50.8142 37.4325 50.7529 37.6123C50.6916 37.7922 50.5949 37.9577 50.4697 38.0986C50.3446 38.2395 50.1934 38.3533 50.0244 38.4326C49.8554 38.512 49.6722 38.5554 49.4863 38.5605C49.3005 38.5657 49.1153 38.5319 48.9424 38.4619C48.7695 38.392 48.6118 38.2871 48.4795 38.1533L47.7031 37.4365C46.9196 38.0001 46.0234 38.3781 45.0801 38.5439C44.7558 38.6079 44.4349 38.69 44.1191 38.7891L44.4307 39.5127C44.5037 39.6833 44.5441 39.8675 44.5479 40.0537C44.5516 40.2398 44.5191 40.4252 44.4531 40.5986C44.3871 40.7721 44.2878 40.9301 44.1621 41.0645C44.0363 41.1989 43.8861 41.307 43.7197 41.3818C43.5534 41.4566 43.374 41.4971 43.1924 41.501C43.0108 41.5048 42.8303 41.4719 42.6611 41.4043C42.4919 41.3366 42.3372 41.2354 42.2061 41.1064C42.075 40.9776 41.9695 40.8238 41.8965 40.6533L41.5918 39.9482C41.5028 40.0067 41.4095 40.0595 41.3223 40.1191C41.0549 40.3125 40.7972 40.5205 40.5508 40.7412C40.2282 41.0237 39.9246 41.3283 39.6426 41.6533C39.427 41.8912 39.2228 42.141 39.0322 42.4004C38.9782 42.4773 38.9375 42.5639 38.8857 42.6426L39.5684 42.9707C39.735 43.048 39.8852 43.1586 40.0098 43.2959C40.1343 43.4332 40.2318 43.5945 40.2949 43.7705C40.3581 43.9465 40.386 44.134 40.3779 44.3213C40.3698 44.5086 40.3251 44.6928 40.2471 44.8623C40.169 45.0317 40.0586 45.1832 39.9229 45.3086C39.787 45.434 39.6286 45.5308 39.4561 45.5928C39.2834 45.6547 39.0996 45.6812 38.917 45.6699C38.7345 45.6586 38.5557 45.61 38.3916 45.5273L37.6924 45.1904C37.5652 45.5955 37.4646 46.0089 37.3916 46.4277C37.2444 47.3086 36.9254 48.1502 36.4531 48.9014L37.1631 49.6484C37.4089 49.9201 37.5411 50.2799 37.5312 50.6504C37.5213 51.0208 37.3703 51.3724 37.1104 51.6299C36.8504 51.8874 36.5021 52.0299 36.1406 52.0273C35.7792 52.0247 35.4331 51.8773 35.1768 51.6162L34.5098 50.915C33.4576 51.6301 32.2243 52.0146 30.9619 52.0215C30.8826 52.0215 30.8006 52.003 30.7207 52L30.499 52.874C30.4213 53.1774 30.2474 53.4463 30.0049 53.6377C29.7623 53.8291 29.4643 53.9323 29.1582 53.9316C29.0404 53.9314 28.9229 53.9172 28.8086 53.8877C28.6332 53.8413 28.468 53.7591 28.3232 53.6475C28.1786 53.5358 28.0568 53.3962 27.9648 53.2363C27.8729 53.0765 27.8124 52.8996 27.7871 52.7158C27.7619 52.5321 27.7722 52.3447 27.8174 52.165L28.042 51.2832C26.8364 50.6658 25.8474 49.6797 25.2129 48.4609L24.3389 48.7256C23.9887 48.8326 23.6114 48.7933 23.29 48.6152C22.9686 48.4371 22.7294 48.1344 22.625 47.7754C22.5207 47.4165 22.5597 47.0296 22.7334 46.7002C22.9072 46.3708 23.2016 46.1256 23.5518 46.0186L24.4512 45.7461C24.4151 45.2403 24.4354 44.7315 24.5117 44.2305C24.6498 43.414 24.8317 42.606 25.0547 41.8096L24.2969 41.541C24.1227 41.4829 23.9609 41.3903 23.8223 41.2676C23.6837 41.145 23.5708 40.9951 23.4893 40.8271C23.4077 40.659 23.3594 40.4755 23.3477 40.2881C23.3359 40.1007 23.361 39.9128 23.4209 39.7354C23.4808 39.5581 23.5742 39.3946 23.6963 39.2549C23.8185 39.115 23.9673 39.0014 24.1328 38.9209C24.2982 38.8406 24.4774 38.7947 24.6602 38.7861C24.8431 38.7776 25.0263 38.8064 25.1982 38.8711L25.9521 39.1357C26.4527 37.9145 27.0553 36.7395 27.7539 35.625L27.1074 35.1436C26.9554 35.0362 26.8258 34.8988 26.7266 34.7393C26.6272 34.5796 26.5601 34.4006 26.5293 34.2139C26.4986 34.0274 26.5044 33.8364 26.5469 33.6523C26.5895 33.4681 26.6681 33.2943 26.7773 33.1416C26.8866 32.9889 27.0249 32.8597 27.1836 32.7627C27.3422 32.6658 27.5183 32.6031 27.7012 32.5771C27.8842 32.5512 28.0706 32.5631 28.249 32.6123C28.4272 32.6615 28.5938 32.7469 28.7393 32.8633L29.3809 33.3408C30.2068 32.3176 31.1175 31.3695 32.1025 30.5068L31.6367 29.8711C31.5281 29.7227 31.449 29.5538 31.4043 29.374C31.3596 29.1942 31.3499 29.0069 31.376 28.8232C31.4021 28.6395 31.4636 28.4621 31.5566 28.3027C31.6496 28.1435 31.7725 28.0049 31.918 27.8945C32.2125 27.6708 32.5815 27.5752 32.9443 27.6289C33.3071 27.6826 33.6347 27.8808 33.8555 28.1807L34.3223 28.8164C35.4064 28.0817 36.5512 27.4448 37.7432 26.9141L37.4922 26.1943C37.3764 25.8415 37.4006 25.4559 37.5596 25.1211C37.7185 24.7864 37.9995 24.5295 38.3418 24.4053C38.6841 24.281 39.0606 24.2994 39.3896 24.457C39.7185 24.6147 39.974 24.8983 40.1006 25.2471L40.3506 25.9639C41.1991 25.7047 42.0622 25.4969 42.9346 25.3418C43.3644 25.268 43.8007 25.2395 44.2363 25.2549L44.4561 24.3955C44.5482 24.0312 44.7774 23.7192 45.0938 23.5283ZM50.9785 50.6387C50.8148 50.6144 50.6492 50.6545 50.5176 50.75C50.3859 50.8456 50.2989 50.9889 50.2764 51.1484C50.2596 51.2673 50.2792 51.3891 50.333 51.498C50.3869 51.6069 50.4729 51.6985 50.5791 51.7607C50.6856 51.823 50.8086 51.8541 50.9316 51.8486C51.0547 51.8432 51.1733 51.8018 51.2715 51.7305C51.3695 51.6591 51.4432 51.5603 51.4834 51.4473C51.5236 51.3341 51.5283 51.2115 51.4971 51.0947C51.4658 50.9779 51.3999 50.8722 51.3076 50.791C51.2153 50.7098 51.1007 50.6568 50.9785 50.6387ZM53.5176 47.5342C53.19 47.4856 52.8581 47.5656 52.5947 47.7568C52.3314 47.9481 52.1583 48.2347 52.1133 48.5537C52.0798 48.7918 52.1187 49.0358 52.2266 49.2539C52.3344 49.4719 52.5059 49.6547 52.7188 49.7793C52.9316 49.9038 53.1768 49.9649 53.4229 49.9541C53.669 49.9432 53.9061 49.8605 54.1025 49.7178C54.2987 49.5751 54.4469 49.3785 54.5273 49.1523C54.6078 48.926 54.6172 48.68 54.5547 48.4463C54.4922 48.2127 54.3601 48.0012 54.1758 47.8389C53.9912 47.6765 53.7619 47.5704 53.5176 47.5342ZM32.957 39.8096C32.4459 39.5926 31.8834 39.5359 31.3408 39.6465C30.7981 39.7571 30.2995 40.0305 29.9082 40.4316C29.5169 40.8327 29.2505 41.344 29.1426 41.9004C29.0347 42.4567 29.09 43.0336 29.3018 43.5576C29.5135 44.0816 29.872 44.5296 30.332 44.8447C30.7921 45.1599 31.3334 45.3281 31.8867 45.3281C32.6287 45.3281 33.3406 45.0261 33.8652 44.4883C34.3899 43.9505 34.6845 43.2206 34.6846 42.46C34.6846 41.8927 34.5203 41.3379 34.2129 40.8662C33.9055 40.3946 33.4682 40.0266 32.957 39.8096ZM37.085 34.4424C36.8294 34.3339 36.5477 34.306 36.2764 34.3613C36.0051 34.4167 35.7561 34.5534 35.5605 34.7539C35.3649 34.9544 35.2317 35.2101 35.1777 35.4883C35.1239 35.7663 35.151 36.0545 35.2568 36.3164C35.3627 36.5784 35.5424 36.8024 35.7725 36.96C36.0025 37.1175 36.2731 37.2021 36.5498 37.2021C36.9207 37.2021 37.2768 37.0501 37.5391 36.7812C37.8012 36.5124 37.9482 36.1477 37.9482 35.7676C37.9482 35.484 37.8666 35.2065 37.7129 34.9707C37.5592 34.7349 37.3405 34.5509 37.085 34.4424Z" fill="white"/>
</svg>
