<svg width="80" height="80" viewBox="0 0 80 80" fill="none" xmlns="http://www.w3.org/2000/svg">
<path d="M40 0C62.0565 0 80 17.9469 80 40C80 62.0598 62.0565 80 40 80C17.9402 80 0 62.0598 0 40C3.16014e-06 32.3522 2.17116 24.9057 6.27734 18.4844C7.06704 17.2448 8.71626 16.882 9.95605 17.6748C11.1993 18.4678 11.5625 20.118 10.7695 21.3613C7.21119 26.9224 5.33301 33.3704 5.33301 40C5.33301 59.1163 20.8837 74.667 40 74.667C59.1163 74.667 74.6641 59.1163 74.6641 40C74.6641 20.8871 59.1163 5.33594 40 5.33594C33.3065 5.33594 26.8013 7.25163 21.21 10.8672C19.9668 11.6601 18.3237 11.3105 17.5205 10.0742C16.7208 8.83766 17.0736 7.18743 18.3135 6.3877C24.7751 2.21105 32.275 3.18655e-06 40 0ZM40 10.6719C56.1694 10.6719 69.331 23.8306 69.3311 40C69.3311 44.7714 68.162 49.5091 65.9443 53.6992C65.2589 54.9963 63.6489 55.4974 62.3418 54.8086C61.0382 54.1197 60.5413 52.5068 61.2334 51.2031C63.0412 47.7824 64.002 43.9079 64.002 40C64.0019 26.7708 53.2325 16.001 40 16.001C26.7675 16.001 15.9981 26.7708 15.998 40C15.998 53.2359 26.7675 64.0019 40 64.002C43.9012 64.002 47.6209 63.0981 51.0449 61.3105C52.3554 60.6284 53.9648 61.146 54.6436 62.4463C55.3223 63.7501 54.8149 65.3666 53.5078 66.042C49.3715 68.1958 44.7008 69.3311 40 69.3311C23.8273 69.331 10.6689 56.1727 10.6689 40C10.669 23.8307 23.8273 10.6719 40 10.6719Z" fill="white"/>
<g clip-path="url(#clip0_1581_2695)">
<path d="M41.6931 42.6802L36.8223 47.551H33.5973V50.7748H30.3735V53.9987H25V48.6252L36.3197 37.3056C35.9374 36.289 35.7434 35.2113 35.7469 34.1252C35.7472 32.1785 36.37 30.2829 37.5241 28.7152C38.6783 27.1475 40.3034 25.9899 42.1622 25.4114C44.021 24.8329 46.016 24.8638 47.856 25.4996C49.6959 26.1355 51.2844 27.3429 52.3894 28.9456C53.4944 30.5483 54.0581 32.4623 53.9981 34.4081C53.9381 36.3539 53.2575 38.2296 52.0559 39.7612C50.8542 41.2927 49.1943 42.4 47.3187 42.9212C45.4431 43.4425 43.4499 43.3504 41.6303 42.6585L41.6931 42.679V42.6802ZM50.7943 31.4306V31.427C50.7943 30.7894 50.6053 30.1662 50.2511 29.6361C49.8969 29.1059 49.3935 28.6927 48.8044 28.4487C48.2154 28.2047 47.5673 28.1407 46.942 28.265C46.3166 28.3893 45.7422 28.6963 45.2913 29.147C44.8404 29.5977 44.5332 30.1721 44.4087 30.7973C44.2842 31.4226 44.3479 32.0708 44.5917 32.6599C44.8355 33.249 45.2485 33.7526 45.7785 34.1069C46.3085 34.4613 46.9317 34.6506 47.5693 34.6508H47.5705C48.4248 34.6505 49.244 34.3113 49.8484 33.7075C50.4528 33.1038 50.793 32.2849 50.7943 31.4306Z" fill="white"/>
</g>
<defs>
<clipPath id="clip0_1581_2695">
<rect width="29" height="29" fill="white" transform="translate(25 25)"/>
</clipPath>
</defs>
</svg>
