<svg width="80" height="80" viewBox="0 0 80 80" fill="none" xmlns="http://www.w3.org/2000/svg">
<path d="M40 0C62.0564 0 80 17.9469 80 40C80 62.0598 62.0565 80 40 80C17.9402 80 0 62.0598 0 40C3.16014e-06 32.3522 2.17116 24.9057 6.27734 18.4844C7.06704 17.2448 8.71626 16.882 9.95605 17.6748C11.1993 18.4678 11.5625 20.118 10.7695 21.3613C7.21119 26.9224 5.33301 33.3704 5.33301 40C5.33301 59.1163 20.8837 74.667 40 74.667C59.1163 74.667 74.6641 59.1163 74.6641 40C74.6641 20.8871 59.1163 5.33594 40 5.33594C33.3065 5.33594 26.8013 7.25163 21.21 10.8672C19.9668 11.6601 18.3237 11.3105 17.5205 10.0742C16.7208 8.83766 17.0736 7.18743 18.3135 6.3877C24.7751 2.21105 32.275 8.07904e-07 40 0ZM40 10.6719C56.1693 10.6719 69.331 23.8306 69.3311 40C69.3311 44.7714 68.162 49.5091 65.9443 53.6992C65.2589 54.9963 63.6489 55.4974 62.3418 54.8086C61.0382 54.1197 60.5412 52.5068 61.2334 51.2031C63.0412 47.7824 64.002 43.9079 64.002 40C64.0019 26.7708 53.2325 16.001 40 16.001C26.7675 16.001 15.9981 26.7708 15.998 40C15.998 53.2359 26.7675 64.002 40 64.002C43.9012 64.002 47.6209 63.0981 51.0449 61.3105C52.3554 60.6284 53.9648 61.1459 54.6436 62.4463C55.3223 63.7501 54.8149 65.3666 53.5078 66.042C49.3715 68.1958 44.7008 69.3311 40 69.3311C23.8273 69.3311 10.6689 56.1727 10.6689 40C10.669 23.8307 23.8273 10.6719 40 10.6719Z" fill="white"/>
<path d="M39.4492 35.3972C39.4492 35.3972 44.1428 35.3069 44.0192 31.2194L43.8885 26.8984C43.8885 26.8984 41.6396 26.9421 40.2962 28.3247C43.6846 24.2505 39.0181 21.1389 39.0181 21.1389C39.0181 21.1389 34.5314 23.9715 38.1724 28.2598C36.7428 26.7929 34.4873 26.6119 34.4873 26.6119L34.618 30.9329C34.7415 35.0204 39.4492 35.3972 39.4492 35.3972ZM39.2669 29.3683C39.5616 29.1108 39.822 28.8561 40.0516 28.6049C39.5885 29.1985 39.2859 29.9982 39.3185 31.0762C39.2859 29.9983 38.9344 29.1786 38.4346 28.5557C38.6799 28.8214 38.9561 29.0923 39.2669 29.3683Z" fill="white"/>
<path d="M44.0867 39.1106L43.9355 34.726C43.9355 34.726 39.1738 34.7973 39.3169 38.9449C39.1738 34.7973 34.3958 34.3947 34.3958 34.3947L34.5471 38.7793C34.616 40.7777 35.7611 41.9066 36.9292 42.54C35.7639 41.9795 34.6551 41.8859 34.6551 41.8859L34.8064 46.2705C34.9084 49.2281 37.3669 50.2812 38.7695 50.6422L39.0167 57.8072L40.9173 57.8733L40.6702 50.7094C42.0503 50.4463 44.4482 49.5632 44.346 46.6018L44.1948 42.2173C44.1948 42.2173 43.0825 42.234 41.9494 42.7195C43.0799 42.1669 44.1559 41.1146 44.0867 39.1106ZM39.5762 46.4361C39.5073 44.4377 38.3623 43.3089 37.1942 42.6754C38.3594 43.2359 39.4682 43.3296 39.4682 43.3296C39.4682 43.3296 40.5804 43.3128 41.7137 42.8273C40.5831 43.3798 39.5071 44.4321 39.5762 46.4361Z" fill="white"/>
</svg>
