<svg width="80" height="80" viewBox="0 0 80 80" fill="none" xmlns="http://www.w3.org/2000/svg">
<path d="M40 0C62.0564 0 80 17.9469 80 40C80 62.0598 62.0564 80 40 80C17.9402 80 0 62.0598 0 40C5.63933e-08 32.3521 2.17116 24.9057 6.27734 18.4844C7.06704 17.2448 8.71626 16.882 9.95605 17.6748C11.1993 18.4678 11.5625 20.118 10.7695 21.3613C7.21119 26.9224 5.33301 33.3704 5.33301 40C5.33301 59.1163 20.8837 74.667 40 74.667C59.1163 74.667 74.6641 59.1163 74.6641 40C74.6641 20.8871 59.1163 5.33594 40 5.33594C33.3065 5.33594 26.8013 7.25163 21.21 10.8672C19.9668 11.6601 18.3237 11.3105 17.5205 10.0742C16.7208 8.83766 17.0736 7.18743 18.3135 6.3877C24.7751 2.21105 32.275 5.68645e-08 40 0ZM40 10.6719C56.1694 10.6719 69.3311 23.8306 69.3311 40C69.3311 44.7714 68.162 49.5091 65.9443 53.6992C65.2589 54.9963 63.6489 55.4974 62.3418 54.8086C61.0382 54.1197 60.5413 52.5068 61.2334 51.2031C63.0412 47.7824 64.002 43.9079 64.002 40C64.002 26.7708 53.2325 16.001 40 16.001C26.7675 16.001 15.998 26.7708 15.998 40C15.998 53.2359 26.7675 64.002 40 64.002C43.9012 64.002 47.6209 63.0981 51.0449 61.3105C52.3554 60.6284 53.9648 61.1459 54.6436 62.4463C55.3223 63.7501 54.8149 65.3666 53.5078 66.042C49.3715 68.1958 44.7008 69.3311 40 69.3311C23.8273 69.3311 10.6689 56.1727 10.6689 40C10.6689 23.8306 23.8273 10.6719 40 10.6719Z" fill="white"/>
<g clip-path="url(#clip0_1553_2598)">
<path d="M49.4544 51.6362C48.8281 51.6362 48.1816 51.5225 47.515 51.2953V51.6362C47.515 52.64 47.1362 53.497 46.3786 54.2072C45.621 54.9174 44.7069 55.2725 43.6362 55.2725H31.9998C30.9291 55.2725 30.015 54.9174 29.2574 54.2072C28.4998 53.497 28.121 52.64 28.121 51.6362V34.7612C27.5352 34.4392 27.0655 34.0036 26.7119 33.4544C26.3584 32.9051 26.1816 32.2991 26.1816 31.6362C26.1816 30.8218 26.4443 30.0974 26.9695 29.4629C27.4948 28.8284 28.1614 28.3975 28.9695 28.1703C29.414 27.5642 29.9897 27.0813 30.6968 26.7214C31.4039 26.3616 32.1614 26.1816 32.9695 26.1816C34.0402 26.1816 35.0099 26.4941 35.8786 27.1191C36.5453 26.4941 37.3534 26.1816 38.3029 26.1816C38.8685 26.1816 39.414 26.3142 39.9392 26.5794C40.5049 26.3142 41.0907 26.1816 41.6968 26.1816C42.4039 26.1816 43.0554 26.3521 43.6513 26.693C44.2473 27.0339 44.717 27.4885 45.0604 28.0566C45.3231 28.0188 45.4948 27.9998 45.5756 27.9998C46.6463 27.9998 47.5604 28.3549 48.318 29.0652C49.0756 29.7754 49.4544 30.6324 49.4544 31.6362C49.4544 32.2991 49.2624 32.9241 48.8786 33.5112C49.2018 33.4733 49.3938 33.4544 49.4544 33.4544C51.0705 33.4544 52.4443 33.9847 53.5756 35.0453C54.7069 36.1059 55.2725 37.3938 55.2725 38.9089V46.1816C55.2725 47.6968 54.7018 48.9847 53.5604 50.0453C52.419 51.1059 51.0503 51.6362 49.4544 51.6362ZM45.5756 29.818C45.1513 29.818 44.7574 29.9411 44.3938 30.1873C44.1917 29.9411 43.9392 29.818 43.6362 29.818C43.6362 29.3256 43.4443 28.8994 43.0604 28.5396C42.6766 28.1797 42.217 27.9998 41.6816 27.9998C41.1463 27.9998 40.6917 28.1797 40.318 28.5396C39.9443 28.8994 39.7574 29.3256 39.7574 29.818C39.7574 29.1362 39.6311 28.6627 39.3786 28.3975C39.1261 28.1324 38.7675 27.9998 38.3029 27.9998C37.818 27.9998 37.2928 28.2602 36.7271 28.7811C36.1614 29.3019 35.8786 29.9506 35.8786 30.7271C35.8786 29.9695 35.5958 29.3256 35.0301 28.7953C34.4645 28.265 33.7776 27.9998 32.9695 27.9998C32.3433 27.9998 31.7827 28.1703 31.2877 28.5112C30.7928 28.8521 30.4443 29.2972 30.2422 29.8464C30.222 29.8464 30.1917 29.8417 30.1513 29.8322C30.1109 29.8227 30.0806 29.818 30.0604 29.818C29.515 29.818 29.0554 29.9979 28.6816 30.3578C28.3079 30.7176 28.121 31.1485 28.121 31.6504C28.121 32.1523 28.3079 32.5784 28.6816 32.9288C29.0554 33.2792 29.515 33.4544 30.0604 33.4544C30.5453 33.4544 30.9695 33.3029 31.3332 32.9998C31.8382 33.3029 32.3837 33.4544 32.9695 33.4544C33.2928 33.4544 33.6261 33.3975 33.9695 33.2839C33.9493 33.3597 33.9392 33.4165 33.9392 33.4544C33.9392 33.6438 33.9796 33.8047 34.0604 33.9373C33.9796 34.0888 33.9392 34.2309 33.9392 34.3635C33.9392 34.6097 34.0352 34.8227 34.2271 35.0027C34.419 35.1826 34.6463 35.2725 34.9089 35.2725C35.1715 35.2725 35.3988 35.1826 35.5907 35.0027C35.7826 34.8227 35.8786 34.6097 35.8786 34.3635C36.4039 34.3635 37.0806 34.2214 37.9089 33.9373C38.0099 34.335 38.2321 34.657 38.5756 34.9032C38.919 35.1494 39.313 35.2725 39.7574 35.2725C40.2826 35.2725 40.7372 35.0974 41.121 34.747C41.5049 34.3966 41.6968 33.9657 41.6968 33.4544C41.6968 33.1892 41.8584 32.9051 42.1816 32.6021C42.5049 32.2991 42.8281 32.0623 43.1513 31.8919L43.6362 31.6362C43.6362 32.1475 43.8231 32.5784 44.1968 32.9288C44.5705 33.2792 45.0251 33.4544 45.5604 33.4544C46.0958 33.4544 46.5554 33.2792 46.9392 32.9288C47.3231 32.5784 47.515 32.1523 47.515 31.6504C47.515 31.1485 47.3231 30.7176 46.9392 30.3578C46.5554 29.9979 46.1008 29.818 45.5756 29.818ZM51.3938 39.5055C51.3938 38.8426 51.1109 38.2744 50.5453 37.801C49.9796 37.3275 49.2928 37.0907 48.4847 37.0907C48.1816 37.0907 47.8584 37.1381 47.515 37.2328V47.8578C47.8584 47.9525 48.1816 47.9998 48.4847 47.9998C49.2928 47.9998 49.9796 47.7631 50.5453 47.2896C51.1109 46.8161 51.3938 46.2479 51.3938 45.585V39.5055Z" fill="white"/>
</g>
<defs>
<clipPath id="clip0_1553_2598">
<rect width="29.0909" height="29.0909" fill="white" transform="translate(26.1816 26.1816)"/>
</clipPath>
</defs>
</svg>
