<svg width="37" height="28" viewBox="0 0 37 28" fill="none" xmlns="http://www.w3.org/2000/svg">
<g clip-path="url(#clip0_4035_18585)">
<path fill-rule="evenodd" clip-rule="evenodd" d="M35.952 11.0103L35.3938 10.4109C35.3938 10.4109 11.7494 -7.8218 3.21499 3.9701C3.21499 3.9701 -4.15231 13.615 3.41799 24.3825C3.41799 24.3825 12.4191 36.1744 35.3938 17.1787C35.3938 17.1787 38.6005 14.5087 35.952 11.0103ZM9.5717 7.843C9.8626 7.5568 10.2568 7.396 10.6679 7.396C11.079 7.396 11.4733 7.5568 11.7642 7.843L16.9353 12.938C17.2258 13.2246 17.3889 13.6131 17.3889 14.0182C17.3889 14.4232 17.2258 14.8117 16.9353 15.0983L11.7642 20.1933C11.4701 20.4633 11.0812 20.6103 10.6793 20.6033C10.2774 20.5963 9.89389 20.4359 9.60969 20.1559C9.32549 19.8758 9.16269 19.498 9.15559 19.102C9.14849 18.706 9.29769 18.3228 9.57169 18.033L13.6444 14.0182L9.5696 10.0033C9.2791 9.7167 9.1159 9.3282 9.1159 8.9232C9.1159 8.5181 9.2791 8.1296 9.5696 7.843L9.5717 7.843ZM15.7769 7.843C16.0678 7.5568 16.4621 7.396 16.8732 7.396C17.2843 7.396 17.6786 7.5568 17.9695 7.843L23.1405 12.938C23.431 13.2246 23.5942 13.6131 23.5942 14.0182C23.5942 14.4232 23.431 14.8117 23.1405 15.0983L17.9695 20.1933C17.6754 20.4633 17.2864 20.6103 16.8845 20.6033C16.4826 20.5963 16.0992 20.4359 15.815 20.1559C15.5307 19.8758 15.3679 19.498 15.3608 19.102C15.3537 18.706 15.5029 18.3228 15.7769 18.033L19.8497 14.0182L15.7749 10.0033C15.4844 9.7167 15.3212 9.3282 15.3212 8.9232C15.3212 8.5181 15.4844 8.1296 15.7749 7.843L15.7769 7.843Z" fill="white" fill-opacity="0.7"/>
</g>
<defs>
<clipPath id="clip0_4035_18585">
<rect width="37" height="28" fill="white" transform="translate(37 28) rotate(-180)"/>
</clipPath>
</defs>
</svg>
