<svg width="37" height="28" viewBox="0 0 37 28" fill="none" xmlns="http://www.w3.org/2000/svg">
<path fill-rule="evenodd" clip-rule="evenodd" d="M1.04803 16.9897L1.60617 17.5891C1.60617 17.5891 25.2506 35.8218 33.785 24.0299C33.785 24.0299 41.1523 14.385 33.582 3.61753C33.582 3.61753 24.5809 -8.17438 1.60617 10.8213C1.60617 10.8213 -1.60055 13.4913 1.04803 16.9897ZM27.4283 20.157C27.1374 20.4432 26.7432 20.604 26.3321 20.604C25.921 20.604 25.5267 20.4432 25.2358 20.157L20.0647 15.062C19.7742 14.7754 19.6111 14.3869 19.6111 13.9818C19.6111 13.5768 19.7742 13.1883 20.0647 12.9017L25.2358 7.80669C25.5299 7.5367 25.9188 7.38971 26.3207 7.39669C26.7226 7.40368 27.1061 7.5641 27.3903 7.84414C27.6745 8.12419 27.8373 8.50201 27.8444 8.89799C27.8515 9.29398 27.7023 9.67722 27.4283 9.96697L23.3556 13.9818L27.4304 17.9967C27.7209 18.2833 27.8841 18.6718 27.8841 19.0768C27.8841 19.4819 27.7209 19.8704 27.4304 20.157H27.4283ZM21.2231 20.157C20.9322 20.4432 20.5379 20.604 20.1268 20.604C19.7157 20.604 19.3214 20.4432 19.0305 20.157L13.8595 15.062C13.569 14.7754 13.4058 14.3869 13.4058 13.9818C13.4058 13.5768 13.569 13.1883 13.8595 12.9017L19.0305 7.80669C19.3246 7.5367 19.7136 7.38971 20.1155 7.39669C20.5174 7.40368 20.9008 7.5641 21.185 7.84414C21.4693 8.12419 21.6321 8.50201 21.6392 8.89799C21.6463 9.29398 21.4971 9.67722 21.2231 9.96697L17.1503 13.9818L21.2251 17.9967C21.5156 18.2833 21.6788 18.6718 21.6788 19.0768C21.6788 19.4819 21.5156 19.8704 21.2251 20.157H21.2231Z" fill="white" fill-opacity="0.7"/>
</svg>
