<svg width="37" height="28" viewBox="0 0 37 28" fill="none" xmlns="http://www.w3.org/2000/svg">
<path fill-rule="evenodd" clip-rule="evenodd" d="M35.952 16.9897L35.3938 17.5891C35.3938 17.5891 11.7494 35.8218 3.21505 24.0299C3.21505 24.0299 -4.15228 14.385 3.41801 3.61753C3.41801 3.61753 12.4191 -8.17438 35.3938 10.8213C35.3938 10.8213 38.6006 13.4913 35.952 16.9897ZM10.5715 20.157C10.8623 20.4432 11.2566 20.604 11.6677 20.604C12.0788 20.604 12.4731 20.4432 12.764 20.157L17.935 15.062C18.2255 14.7754 18.3887 14.3869 18.3887 13.9818C18.3887 13.5768 18.2255 13.1883 17.935 12.9017L12.764 7.80669C12.4699 7.5367 12.081 7.38971 11.6791 7.39669C11.2772 7.40368 10.8937 7.5641 10.6095 7.84414C10.3253 8.12419 10.1624 8.50201 10.1554 8.89799C10.1483 9.29398 10.2974 9.67722 10.5715 9.96697L14.6442 13.9818L10.5694 17.9967C10.2789 18.2833 10.1157 18.6718 10.1157 19.0768C10.1157 19.4819 10.2789 19.8704 10.5694 20.157H10.5715ZM16.7767 20.157C17.0676 20.4432 17.4619 20.604 17.873 20.604C18.2841 20.604 18.6784 20.4432 18.9692 20.157L24.1403 15.062C24.4308 14.7754 24.594 14.3869 24.594 13.9818C24.594 13.5768 24.4308 13.1883 24.1403 12.9017L18.9692 7.80669C18.6752 7.5367 18.2862 7.38971 17.8843 7.39669C17.4824 7.40368 17.099 7.5641 16.8147 7.84414C16.5305 8.12419 16.3677 8.50201 16.3606 8.89799C16.3535 9.29398 16.5027 9.67722 16.7767 9.96697L20.8494 13.9818L16.7747 17.9967C16.4841 18.2833 16.321 18.6718 16.321 19.0768C16.321 19.4819 16.4841 19.8704 16.7747 20.157H16.7767Z" fill="#5C5A58" fill-opacity="0.7"/>
</svg>
